M48
INCH
T01C0.0191
T02C0.028
T03C0.035
T04C0.0354
T05C0.0394
T06C0.0472
T07C0.0709
T08C0.1378
T09C0.1654
%
T01
X+046187Y+050937
X+046437Y+048687
X+048062Y+046687
X+049062Y+046812
X+049562Y+045187
X+050312Y+045312
X+050785Y+044589
X+050312Y+048312
X+052062Y+048687
X+052062Y+051062
X+043562Y+044812
X+042937Y+043812
X+042312Y+042812
X+041812Y+040812
X+041062Y+046937
X+029812Y+048812
X+029312Y+046812
X+027937Y+043812
X+026937Y+042812
X+030187Y+039812
X+031812Y+038812
X+032562Y+036812
X+027937Y+031437
X+026937Y+031062
X+026312Y+030187
X+023812Y+029687
X+023187Y+024437
X+021937Y+023687
X+020687Y+022562
X+022437Y+014314
X+022437Y+012306
X+022437Y+010312
X+027437Y+008187
X+031812Y+011062
X+032562Y+013062
X+030187Y+015062
X+035437Y+010312
X+039062Y+012187
X+039687Y+012187
X+040062Y+012812
X+041062Y+012437
X+042187Y+015437
X+042562Y+015437
X+042937Y+015437
X+041812Y+018937
X+042937Y+019937
X+042312Y+020437
X+043562Y+019437
X+040187Y+022562
X+039062Y+023687
X+039687Y+024562
X+035437Y+027940
X+029812Y+026937
X+029312Y+025937
X+021937Y+036812
X+023187Y+039812
X+021312Y+045812
X+049562Y+034812
X+048062Y+031437
X+049687Y+031062
X+049062Y+029687
X+051062Y+030187
X+048562Y+016937
X+051687Y+014812
X+052062Y+014812
X+052437Y+014812
X+052437Y+009961
X+048562Y+009937
T02
X+007587Y+005512
X+006587Y+005512
T03
X+034437Y+052812
X+034437Y+051812
X+034437Y+050812
X+034437Y+049812
X+034437Y+048812
X+034437Y+047812
X+034437Y+046812
X+034437Y+045812
X+034437Y+044812
X+034437Y+043812
X+034437Y+042812
X+034437Y+041812
X+034437Y+040812
X+034437Y+039812
X+034437Y+038812
X+034437Y+037812
X+034437Y+036812
X+034437Y+035812
X+034437Y+034812
X+025437Y+034812
X+025437Y+035812
X+025437Y+036812
X+025437Y+037812
X+025437Y+038812
X+025437Y+039812
X+025437Y+040812
X+025437Y+041812
X+025437Y+042812
X+025437Y+043812
X+025437Y+044812
X+025437Y+045812
X+025437Y+046812
X+025437Y+047812
X+025437Y+048812
X+025437Y+049812
X+025437Y+050812
X+025437Y+051812
X+025437Y+052812
X+047937Y+028937
X+047937Y+027937
X+047937Y+026937
X+047937Y+025937
X+047937Y+024937
X+050937Y+024937
X+050937Y+025937
X+050937Y+026937
X+050937Y+027937
X+050937Y+028937
T04
X+035437Y+052812
X+035437Y+051812
X+035437Y+050812
X+035437Y+049812
X+035437Y+048812
X+035437Y+047812
X+035437Y+046812
X+035437Y+045812
X+035437Y+044812
X+035437Y+043812
X+035437Y+042812
X+035437Y+041812
X+035437Y+040812
X+035437Y+039812
X+035437Y+038812
X+035437Y+037812
X+035437Y+036812
X+035437Y+035812
X+035437Y+034812
X+024437Y+034812
X+024437Y+035812
X+024437Y+036812
X+024437Y+037812
X+024437Y+038812
X+024437Y+039812
X+024437Y+040812
X+024437Y+041812
X+024437Y+042812
X+024437Y+043812
X+024437Y+044812
X+024437Y+045812
X+024437Y+046812
X+024437Y+047812
X+024437Y+048812
X+024437Y+049812
X+024437Y+050812
X+024437Y+051812
X+024437Y+052812
T05
X+050978Y+051998
X+047829Y+051998
X+018509Y+050174G85X+018115Y+050174
X+016462Y+048796G85X+016462Y+049190
X+018509Y+047812G85X+018115Y+047812
T06
X+059687Y+009312
X+059687Y+010296
X+059687Y+011281
X+059687Y+012265
X+059687Y+013249
X+059687Y+014233
X+059687Y+015218
X+059687Y+016202
X+059687Y+017186
X+059687Y+018170
X+059687Y+019155
X+059687Y+020139
X+059687Y+021123
T07
X+014062Y+009062
X+014062Y+011062
X+014062Y+013062
X+014062Y+015062
X+014062Y+017062
X+014062Y+019062
T08
X+014173Y+005315
X+014173Y+038780
X+059449Y+038780
X+059449Y+005315
T09
X+022047Y+049606
X+039370Y+049606
X+058268Y+049606
T00
M30
