G04 DipTrace 3.3.1.3*
G04 Top.gbr*
%MOIN*%
G04 #@! TF.FileFunction,Copper,L1,Top*
G04 #@! TF.Part,Single*
G04 #@! TA.AperFunction,Conductor*
%ADD13C,0.015*%
%ADD14C,0.012*%
G04 #@! TA.AperFunction,ComponentPad*
%ADD15C,0.05*%
G04 #@! TA.AperFunction,Conductor*
%ADD16C,0.02*%
%ADD17C,0.042*%
%ADD18C,0.035*%
G04 #@! TA.AperFunction,ViaPad*
%ADD19C,0.04*%
G04 #@! TA.AperFunction,Conductor*
%ADD20C,0.022835*%
%ADD21C,0.0251*%
%ADD25R,0.177165X0.082677*%
%ADD26R,0.051181X0.059055*%
%ADD28R,0.082677X0.177165*%
%ADD30R,0.098425X0.066929*%
G04 #@! TA.AperFunction,ComponentPad*
%ADD31R,0.05X0.05*%
%ADD32R,0.059055X0.059055*%
%ADD33C,0.059055*%
%ADD34R,0.074803X0.074803*%
%ADD35C,0.074803*%
%ADD36R,0.027559X0.051181*%
%ADD37R,0.047244X0.07874*%
%ADD38R,0.047244X0.055118*%
%ADD39R,0.031496X0.055118*%
G04 #@! TA.AperFunction,ComponentPad*
%ADD40R,0.110236X0.110236*%
%ADD41C,0.110236*%
%ADD42O,0.11811X0.07874*%
%ADD43O,0.07874X0.11811*%
%ADD44C,0.23622*%
%ADD46R,0.044094X0.022835*%
%ADD47R,0.059055X0.051181*%
G04 #@! TA.AperFunction,ComponentPad*
%ADD48C,0.06*%
%ADD49R,0.06X0.06*%
%FSLAX26Y26*%
G04*
G70*
G90*
G75*
G01*
G04 Top*
%LPD*%
X3443700Y3481200D2*
D13*
X3543700D1*
X2143700Y1431397D2*
X2243700D1*
Y1031200D2*
X3543700D1*
X2143700Y1231397D2*
X2243700Y1230637D1*
X2143700Y1031397D2*
X2243700Y1031200D1*
X4793700Y2793700D2*
X3543700Y2793983D1*
Y3481200D2*
D14*
X4956200D1*
Y4518700D2*
X4948621Y4526279D1*
Y4768700D1*
X5968700Y1521751D2*
D15*
X5284251D1*
X5243700Y1481200D1*
X5206200D1*
X5168700D1*
X5056200D1*
X4618700D1*
Y1581200D1*
X4493700Y1706200D1*
X1406200D1*
X5056200Y893700D2*
D13*
X5118700Y956200D1*
Y989074D1*
X5114074Y993700D1*
X5056200Y1593700D2*
X5081200D1*
X5114074Y1626574D1*
Y1693700D1*
X5056200Y1593700D2*
D16*
Y1481200D1*
X5114074Y993700D2*
D13*
X5111721Y996053D1*
D16*
X5243700D1*
X5093700Y2793700D2*
D17*
X5606200D1*
X1406200Y1706200D2*
D16*
X1293700D1*
X1243700Y1656200D1*
Y793700D1*
X1043503Y593503D1*
X943700D1*
X3963680Y5218700D2*
D18*
X4093700D1*
X4481200Y4831200D1*
Y4656200D1*
X5843700Y3293700D1*
Y3031200D1*
X5606200Y2793700D1*
X5206200Y1481200D2*
D15*
D3*
X5168700D2*
D3*
X2443700Y4081200D2*
D13*
X2543700D1*
X3443700Y4781200D2*
X3543700D1*
X2443700Y3481200D2*
X2543700D1*
X4981397Y893700D2*
X4956200D1*
X4906200Y943700D1*
Y993700D1*
X4981397Y1593700D2*
X4956200D1*
X4906200Y1643700D1*
Y1693700D1*
X5093700Y2893700D2*
D19*
X5193700D1*
X5448031Y3148031D1*
X5606200D1*
X4630511Y5184054D2*
D14*
Y5105511D1*
X4618700Y5093700D1*
X4630511Y4802165D2*
Y4855511D1*
X4643700Y4868700D1*
X5035235Y4768700D2*
Y4827165D1*
X5031200Y4831200D1*
X5208464Y4802165D2*
Y4866436D1*
X5206200Y4868700D1*
Y5106200D2*
Y5181791D1*
X5208464Y5184054D1*
X4264369Y1481200D2*
Y1514369D1*
X4293700Y1543700D1*
X4264369Y1481200D2*
Y1535531D1*
X4256200Y1543700D1*
X4264369Y1481200D2*
Y1498031D1*
X4218700Y1543700D1*
X4906200Y1693700D2*
X4856200D1*
X4906200Y993700D2*
X4856200D1*
X5114074Y1193700D2*
D20*
X5148671D1*
D21*
X5781200D1*
X5846850Y1128050D1*
X5968700D1*
X5114074Y1293700D2*
D20*
X5148671D1*
D21*
X5806200D1*
X5837401Y1324901D1*
X5968700D1*
X5114074Y1243700D2*
D20*
X5148671D1*
D21*
X5806200D1*
X5823424Y1226476D1*
X5968700D1*
Y1620176D2*
X5729724D1*
X5456200Y1893700D1*
X5114074D1*
Y2043700D2*
D20*
X5148671D1*
D21*
X5618700D1*
X5746948Y1915452D1*
X5968700D1*
X5114074Y1993700D2*
D20*
X5148671D1*
D21*
X5568700D1*
X5745373Y1817027D1*
X5968700D1*
X5114074Y1943700D2*
D20*
X5148671D1*
D21*
X5518700D1*
X5731200Y1731200D1*
X5956102D1*
X5968700Y1718602D1*
X2443700Y3581200D2*
D13*
X2543700D1*
X4905314Y4768700D2*
D14*
Y4682086D1*
X4906200Y4681200D1*
Y2968700D2*
X2381200D1*
X2443700Y4481200D2*
D13*
X2543700D1*
X2743700Y818700D2*
X5218700D1*
X5331200Y931200D1*
X5968700D1*
Y2013877D2*
D19*
X5786023D1*
X5206200Y2593700D1*
X5093700D1*
Y2693700D2*
X5243700D1*
X5818700Y2118700D1*
X5962302D1*
X5968700Y2112302D1*
X2543700Y4681200D2*
D13*
X2443700D1*
X4793700Y2593700D2*
D14*
X2931200D1*
Y4681200D2*
X2543700D1*
Y4881200D2*
D13*
X2443700D1*
X4793700Y2693700D2*
D14*
X2981200D1*
Y4881200D2*
X2543700D1*
X3443700D2*
D13*
X3543700D1*
X4906200Y1343700D2*
D14*
X4793700D1*
X4693700Y1243700D1*
X4106200D1*
Y4693700D2*
X3856200D1*
X3668700Y4881200D1*
X3543700D1*
X2443700Y4581200D2*
D13*
X2543700D1*
X4906200Y1293700D2*
D14*
X4806200D1*
X4668700Y1156200D1*
X4131200D1*
X4006200Y1281200D1*
X4018700Y2256200D2*
X2068700D1*
X2131200Y4581200D2*
X2443700D1*
X2543700Y3981200D2*
D13*
X2443700D1*
X4906200Y1243700D2*
D14*
X4818700D1*
X4693700Y1118700D1*
X4068700D1*
X3968700Y1218700D1*
Y2456200D2*
X3956200Y2443700D1*
X2318700D1*
Y3981200D2*
X2443700D1*
Y3681200D2*
D13*
X2543700D1*
X4906200Y1193700D2*
D14*
X4831200D1*
X4718700Y1081200D1*
X4043700D1*
X3906200Y1218700D1*
Y2368700D2*
X2193700D1*
Y3681200D2*
X2443700D1*
X3443700Y4281200D2*
D13*
X3543700D1*
X4906200Y2043700D2*
D14*
X4231200D1*
Y4281200D2*
X3543700D1*
X3443700Y4381200D2*
D13*
X3543700D1*
X4906200Y1993700D2*
D14*
X4293700D1*
Y4381200D2*
X3543700D1*
X3443700Y4481200D2*
D13*
X3543700D1*
X4906200Y1943700D2*
D14*
X4356200D1*
Y4481200D2*
X3543700D1*
X3443700Y4081200D2*
D13*
X3543700D1*
X4906200Y1893700D2*
D14*
X4181200D1*
Y4081200D2*
X3543700D1*
X1406200Y1306200D2*
D13*
X2143700D1*
X3443700Y3681200D2*
X3543700D1*
X2143700Y1306200D2*
D14*
X3256200D1*
Y3681200D2*
X3443700D1*
X1406200Y1506200D2*
D13*
X2143700D1*
X3443700Y3981200D2*
X3543700D1*
X2143700Y1506200D2*
D14*
X3018700D1*
Y3981200D2*
X3443700D1*
X1406200Y1106200D2*
D13*
X2143700D1*
X3443700Y3881200D2*
X3543700D1*
X2143700Y1106200D2*
D14*
X3181200D1*
Y3881200D2*
X3443700D1*
Y5281200D2*
D13*
X3543700D1*
D18*
X3643700D1*
X3706200Y5218700D1*
X3806200D1*
X3443700Y3581200D2*
D13*
X3543700D1*
X3443700Y4181200D2*
X3543700D1*
X3443700Y4581200D2*
X3543700D1*
X3443700Y4681200D2*
X3543700D1*
X3443700Y4981200D2*
X3543700D1*
X3443700Y5081200D2*
X3543700D1*
X3443700Y5181200D2*
X3543700D1*
X2543700Y4381200D2*
X2443700D1*
X4862007Y4768700D2*
D14*
Y4711480D1*
X4806200Y4668700D1*
Y3143700D2*
X2793700D1*
Y4381200D2*
X2543700D1*
Y4181200D2*
D13*
X2443700D1*
X5078543Y4768700D2*
D14*
Y4458857D1*
X5106200Y3018700D2*
X2631200D1*
X2443700Y4281200D2*
D13*
X2543700D1*
X4991928Y4768700D2*
D14*
Y4570472D1*
X5031200Y4531200D1*
X4968700Y3106200D2*
X2693700D1*
Y4281200D2*
X2543700D1*
X2443700Y3781200D2*
D13*
X2543700D1*
X2443700Y3881200D2*
X2543700D1*
X2443700Y4781200D2*
X2543700D1*
X2443700Y4981200D2*
X2543700D1*
Y5081200D2*
X2443700D1*
Y5181200D2*
X2543700D1*
X2443700Y5281200D2*
D14*
X2543700D1*
X943700Y518700D2*
D16*
X868700D1*
X836220Y551180D1*
X758661D1*
X5114074Y1343700D2*
D20*
X5148671D1*
D21*
X5768700D1*
X5848326Y1423326D1*
X5968700D1*
D19*
X2243700Y1431397D3*
Y1031200D3*
X3543700D3*
X2243700Y1230637D3*
Y1031200D3*
X3543700Y2793983D3*
X4956200Y3481200D3*
Y4518700D3*
X5243700Y996053D3*
Y1481200D3*
D3*
D3*
X4906200Y4681200D3*
Y2968700D3*
X2381200D3*
X2743700Y818700D3*
X2931200Y2593700D3*
Y4681200D3*
X2981200Y2693700D3*
Y4881200D3*
X4106200Y1243700D3*
Y4693700D3*
X4006200Y1281200D3*
X4018700Y2256200D3*
X2068700D3*
X2131200Y4581200D3*
X3968700Y1218700D3*
Y2456200D3*
X2318700Y2443700D3*
Y3981200D3*
X3906200Y1218700D3*
Y2368700D3*
X2193700D3*
Y3681200D3*
X4231200Y2043700D3*
Y4281200D3*
X4293700Y1993700D3*
Y4381200D3*
X4356200Y1943700D3*
Y4481200D3*
X4181200Y1893700D3*
Y4081200D3*
X3256200Y1306200D3*
Y3681200D3*
X3018700Y1506200D3*
Y3981200D3*
X3181200Y1106200D3*
Y3881200D3*
X4806200Y4668700D3*
Y3143700D3*
X2793700D3*
Y4381200D3*
X5078543Y4458857D3*
X5106200Y3018700D3*
X2631200D3*
X5031200Y4531200D3*
X4968700Y3106200D3*
X2693700D3*
Y4281200D3*
X4618700Y5093700D3*
X4643700Y4868700D3*
X5206200Y5106200D3*
Y4868700D3*
X5031200Y4831200D3*
X4256200Y1543700D3*
X4218700D3*
X4293700D3*
X4856200Y1693700D3*
Y993700D3*
X5206200Y1481200D3*
X5168700D3*
D25*
X4618700D3*
X4264369D3*
D26*
X5056200Y893700D3*
X4981397D3*
X5056200Y1593700D3*
X4981397D3*
D28*
X5606200Y2793700D3*
Y3148031D3*
D30*
X3806200Y5218700D3*
X3963680D3*
D15*
X758661Y551180D3*
D31*
X658661D3*
D32*
X3543700Y5281200D3*
D33*
Y5181200D3*
Y5081200D3*
Y4981200D3*
Y4881200D3*
Y4781200D3*
Y4681200D3*
Y4581200D3*
Y4481200D3*
Y4381200D3*
Y4281200D3*
Y4181200D3*
Y4081200D3*
Y3981200D3*
Y3881200D3*
Y3781200D3*
Y3681200D3*
Y3581200D3*
Y3481200D3*
D32*
X2443700Y5281200D3*
D33*
Y5181200D3*
Y5081200D3*
Y4981200D3*
Y4881200D3*
Y4781200D3*
Y4681200D3*
Y4581200D3*
Y4481200D3*
Y4381200D3*
Y4281200D3*
Y4181200D3*
Y4081200D3*
Y3981200D3*
Y3881200D3*
Y3781200D3*
Y3681200D3*
Y3581200D3*
Y3481200D3*
D34*
X5968700Y931200D3*
D35*
Y1029625D3*
Y1128050D3*
Y1226476D3*
Y1324901D3*
Y1423326D3*
Y1521751D3*
Y1620176D3*
Y1718602D3*
Y1817027D3*
Y1915452D3*
Y2013877D3*
Y2112302D3*
D36*
X4818700Y4768700D3*
X4862007D3*
X4905314D3*
X4948621D3*
X4991928D3*
X5035235D3*
X5078543D3*
X5121850D3*
X5165157D3*
D37*
X4630511Y5184054D3*
D38*
Y4802165D3*
D39*
X5208464D3*
D37*
Y5184054D3*
D40*
X1406200Y906200D3*
D41*
Y1106200D3*
Y1306200D3*
Y1506200D3*
Y1706200D3*
Y1906200D3*
D42*
X1831200Y4781200D3*
Y5017420D3*
D43*
X1646161Y4899310D3*
D44*
X1417322Y531495D3*
X5944881D3*
Y3877952D3*
X1417322D3*
X2204724Y4960629D3*
X3937007D3*
X5826771D3*
D46*
X4906200Y1343700D3*
Y1293700D3*
Y1243700D3*
Y1193700D3*
Y1143700D3*
Y1093700D3*
Y1043700D3*
Y993700D3*
X5114074Y1343700D3*
Y1293700D3*
Y1243700D3*
Y1193700D3*
Y1143700D3*
Y1093700D3*
Y1043700D3*
Y993700D3*
X4906200Y2043700D3*
Y1993700D3*
Y1943700D3*
Y1893700D3*
Y1843700D3*
Y1793700D3*
Y1743700D3*
Y1693700D3*
X5114074Y2043700D3*
Y1993700D3*
Y1943700D3*
Y1893700D3*
Y1843700D3*
Y1793700D3*
Y1743700D3*
Y1693700D3*
D47*
X2143700Y1106200D3*
Y1031397D3*
Y1306200D3*
Y1231397D3*
Y1506200D3*
Y1431397D3*
X943700Y518700D3*
Y593503D3*
D48*
X3443700Y5281200D3*
Y5181200D3*
Y5081200D3*
Y4981200D3*
Y4881200D3*
Y4781200D3*
Y4681200D3*
Y4581200D3*
Y4481200D3*
Y4381200D3*
Y4281200D3*
Y4181200D3*
Y4081200D3*
Y3981200D3*
Y3881200D3*
Y3781200D3*
Y3681200D3*
Y3581200D3*
Y3481200D3*
X2543700Y5281200D3*
Y5181200D3*
Y5081200D3*
Y4981200D3*
Y4881200D3*
Y4781200D3*
Y4681200D3*
Y4581200D3*
Y4481200D3*
Y4381200D3*
Y4281200D3*
Y4181200D3*
Y4081200D3*
Y3981200D3*
Y3881200D3*
Y3781200D3*
Y3681200D3*
Y3581200D3*
Y3481200D3*
X4793700Y2893700D3*
Y2793700D3*
Y2693700D3*
Y2593700D3*
Y2493700D3*
X5093700D3*
Y2593700D3*
Y2693700D3*
Y2793700D3*
D49*
Y2893700D3*
M02*
