G04 DipTrace 3.3.1.3*
G04 TopPaste.gbr*
%MOIN*%
G04 #@! TF.FileFunction,Paste,Top*
G04 #@! TF.Part,Single*
%ADD66R,0.051175X0.043301*%
%ADD68R,0.036214X0.014955*%
%ADD80R,0.023616X0.047238*%
%ADD82R,0.039364X0.047238*%
%ADD84R,0.039364X0.07086*%
%ADD86R,0.019679X0.043301*%
%ADD100R,0.090545X0.059049*%
%ADD102R,0.074797X0.169285*%
%ADD104R,0.043301X0.051175*%
%ADD106R,0.169285X0.074797*%
%FSLAX26Y26*%
G04*
G70*
G90*
G75*
G01*
G04 TopPaste*
%LPD*%
D106*
X4618700Y1481200D3*
X4264369D3*
D104*
X5056200Y893700D3*
X4981397D3*
X5056200Y1593700D3*
X4981397D3*
D102*
X5606200Y2793700D3*
Y3148031D3*
D100*
X3806200Y5218700D3*
X3963680D3*
D86*
X4818700Y4768700D3*
X4862007D3*
X4905314D3*
X4948621D3*
X4991928D3*
X5035235D3*
X5078543D3*
X5121850D3*
X5165157D3*
D84*
X4630511Y5184054D3*
D82*
Y4802165D3*
D80*
X5208464D3*
D84*
Y5184054D3*
D68*
X4906200Y1343700D3*
Y1293700D3*
Y1243700D3*
Y1193700D3*
Y1143700D3*
Y1093700D3*
Y1043700D3*
Y993700D3*
X5114074Y1343700D3*
Y1293700D3*
Y1243700D3*
Y1193700D3*
Y1143700D3*
Y1093700D3*
Y1043700D3*
Y993700D3*
X4906200Y2043700D3*
Y1993700D3*
Y1943700D3*
Y1893700D3*
Y1843700D3*
Y1793700D3*
Y1743700D3*
Y1693700D3*
X5114074Y2043700D3*
Y1993700D3*
Y1943700D3*
Y1893700D3*
Y1843700D3*
Y1793700D3*
Y1743700D3*
Y1693700D3*
D66*
X2143700Y1106200D3*
Y1031397D3*
Y1306200D3*
Y1231397D3*
Y1506200D3*
Y1431397D3*
X943700Y518700D3*
Y593503D3*
M02*
