G04 DipTrace 3.3.1.3*
G04 TopSilk.gbr*
%MOIN*%
G04 #@! TF.FileFunction,Legend,Top*
G04 #@! TF.Part,Single*
%ADD10C,0.009843*%
%ADD23C,0.0151*%
%ADD24C,0.031465*%
%ADD27C,0.031508*%
%ADD29C,0.019695*%
%ADD45C,0.024995*%
%ADD107C,0.006176*%
%ADD108C,0.00772*%
%ADD109C,0.012351*%
%ADD110C,0.010807*%
%ADD111C,0.015439*%
%FSLAX26Y26*%
G04*
G70*
G90*
G75*
G01*
G04 TopSilk*
%LPD*%
X4238769Y1278444D2*
D10*
Y1422157D1*
Y1278444D2*
X4579352D1*
X4238769Y1540243D2*
Y1683956D1*
X4579352D1*
X4644300Y1343407D2*
Y1422157D1*
Y1540243D2*
Y1618993D1*
Y1343407D2*
X4579352Y1278444D1*
X4644300Y1618993D2*
X4579352Y1683956D1*
D24*
X4677731Y1410337D3*
X5097560Y919271D2*
D10*
Y868129D1*
Y1619271D2*
Y1568129D1*
X5403444Y3173631D2*
X5547157D1*
X5403444D2*
Y2833048D1*
X5665243Y3173631D2*
X5808956D1*
Y2833048D1*
X5468407Y2768100D2*
X5547157D1*
X5665243D2*
X5743993D1*
X5468407D2*
X5403444Y2833048D1*
X5743993Y2768100D2*
X5808956Y2833048D1*
D27*
X5535337Y2734669D3*
X3766821Y5258066D2*
D10*
Y5277755D1*
X4003045D1*
Y5258066D1*
X3766821Y5179334D2*
Y5159645D1*
X4003045D1*
Y5179334D1*
X3865267Y5258066D2*
Y5179334D1*
D29*
X3737307Y5218700D3*
X608667Y476243D2*
D10*
Y626118D1*
X608892Y475943D2*
G03X608892Y626418I99796J75238D01*
G01*
X3593700Y3805500D2*
Y3797900D1*
Y5257100D2*
Y3431200D1*
Y5331200D2*
Y5257100D1*
X3493700Y5331200D2*
X3593700D1*
X3493700D2*
Y3431200D1*
X3593700D1*
X2493700Y3805500D2*
Y3797900D1*
Y5257100D2*
Y3431200D1*
Y5331200D2*
Y5257100D1*
X2393700Y5331200D2*
X2493700D1*
X2393700D2*
Y3431200D1*
X2493700D1*
X5870260Y872145D2*
X6126180D1*
Y2161515D1*
X5870260D1*
Y872145D1*
Y921399D2*
X5909635D1*
Y1128085D1*
X5870260D1*
Y921399D1*
Y1915503D2*
X5909635D1*
Y2112261D1*
X5870260D1*
Y1915503D1*
G36*
X5860442Y921399D2*
X5781692Y881944D1*
Y960725D1*
X5860442Y921399D1*
G37*
X5208446Y5318109D2*
D10*
X5183471Y5293089D1*
X5258464Y5318109D2*
X4583464D1*
Y4718109D1*
X5258464D1*
Y5318109D1*
X5183471Y5293089D2*
X4658456D1*
X4633481Y5318109D1*
X4933451Y5293089D2*
Y5118129D1*
X4983469Y5143089D1*
X4933451Y5118129D2*
X4883434Y5143089D1*
X1307777Y815649D2*
X1642420D1*
Y1996751D1*
X1307777D1*
Y815649D1*
X1553833D2*
X1642420D1*
Y1996751D1*
X1553833D1*
Y815649D1*
G36*
X1288070Y904231D2*
X1179822Y963287D1*
Y854980D1*
X1288070Y904231D1*
G37*
X1654015Y4976104D2*
D10*
Y5320570D1*
X2008357D1*
Y5316635D1*
Y5320570D2*
Y4753636D1*
X1902063D1*
X1760350D2*
X1654015D1*
Y4822564D1*
X4941375Y1368681D2*
Y974950D1*
X5078899D1*
Y1368681D1*
X4941375D2*
X4985142D1*
X5078899D2*
X5035132D1*
D45*
X4903882Y1374951D3*
X4985142Y1368681D2*
D10*
X5010137Y1343684D1*
X5035132Y1368681D1*
X4941375Y2068681D2*
Y1674950D1*
X5078899D1*
Y2068681D1*
X4941375D2*
X4985142D1*
X5078899D2*
X5035132D1*
D45*
X4903882Y2074951D3*
X4985142Y2068681D2*
D10*
X5010137Y2043684D1*
X5035132Y2068681D1*
X3493700Y3431183D2*
X2493700D1*
Y5331200D1*
X3493700D1*
Y3431183D1*
X3393700D2*
Y5331200D1*
X2593700Y3431183D2*
Y5331200D1*
X3309800Y3430755D2*
D3*
X3143700Y5181300D2*
X2843700D1*
Y5331200D1*
X3143700D1*
Y5181300D1*
G36*
X5168700Y2893700D2*
X5243700Y2918700D1*
Y2868700D1*
X5168700Y2893700D1*
G37*
X4843700Y2443700D2*
D10*
X5043700D1*
Y2943700D2*
X5143700D1*
Y2843700D1*
X5043700D1*
Y2943700D1*
X4743700D2*
X5143700D1*
Y2443700D1*
X4743700D1*
Y2943700D1*
X5593700Y543700D2*
D23*
G02X5593700Y543700I100000J0D01*
G01*
X5793700D1*
X5643700Y512451D2*
X5743700D1*
X5668700Y481200D2*
X5718700D1*
X5693700Y549949D2*
Y637451D1*
X4444910Y1732984D2*
D107*
X4443008Y1736786D1*
X4439161Y1740633D1*
X4435359Y1742534D1*
X4427710D1*
X4423863Y1740633D1*
X4420060Y1736786D1*
X4418115Y1732984D1*
X4416214Y1727236D1*
Y1717641D1*
X4418115Y1711937D1*
X4420060Y1708090D1*
X4423863Y1704288D1*
X4427710Y1702342D1*
X4435359D1*
X4439161Y1704288D1*
X4443008Y1708090D1*
X4444910Y1711937D1*
X4457261Y1734841D2*
X4461108Y1736786D1*
X4466856Y1742490D1*
Y1702342D1*
X5021458Y834755D2*
X5019557Y838558D1*
X5015710Y842405D1*
X5011907Y844306D1*
X5004258D1*
X5000411Y842405D1*
X4996609Y838558D1*
X4994663Y834755D1*
X4992762Y829007D1*
Y819413D1*
X4994663Y813709D1*
X4996609Y809862D1*
X5000411Y806060D1*
X5004258Y804114D1*
X5011907D1*
X5015710Y806060D1*
X5019557Y809862D1*
X5021458Y813709D1*
X5035755Y834711D2*
Y836613D1*
X5037656Y840459D1*
X5039557Y842361D1*
X5043404Y844262D1*
X5051053D1*
X5054856Y842361D1*
X5056757Y840459D1*
X5058703Y836613D1*
Y832810D1*
X5056757Y828963D1*
X5052955Y823259D1*
X5033809Y804114D1*
X5060604D1*
X5008958Y1547255D2*
X5007057Y1551058D1*
X5003210Y1554905D1*
X4999407Y1556806D1*
X4991758D1*
X4987911Y1554905D1*
X4984109Y1551058D1*
X4982163Y1547255D1*
X4980262Y1541507D1*
Y1531913D1*
X4982163Y1526209D1*
X4984109Y1522362D1*
X4987911Y1518560D1*
X4991758Y1516614D1*
X4999407D1*
X5003210Y1518560D1*
X5007057Y1522362D1*
X5008958Y1526209D1*
X5025156Y1556762D2*
X5046158D1*
X5034707Y1541463D1*
X5040455D1*
X5044257Y1539562D1*
X5046158Y1537661D1*
X5048104Y1531913D1*
Y1528110D1*
X5046158Y1522362D1*
X5042356Y1518515D1*
X5036608Y1516614D1*
X5030860D1*
X5025156Y1518515D1*
X5023255Y1520461D1*
X5021309Y1524263D1*
X5875024Y2985641D2*
X5873123Y2989444D1*
X5869276Y2993291D1*
X5865474Y2995192D1*
X5857824D1*
X5853978Y2993291D1*
X5850175Y2989444D1*
X5848230Y2985641D1*
X5846328Y2979893D1*
Y2970298D1*
X5848230Y2964595D1*
X5850175Y2960748D1*
X5853978Y2956945D1*
X5857824Y2955000D1*
X5865474D1*
X5869276Y2956945D1*
X5873123Y2960748D1*
X5875024Y2964595D1*
X5906521Y2955000D2*
Y2995148D1*
X5887376Y2968397D1*
X5916072D1*
X3783306Y5136334D2*
Y5096142D1*
X3796703D1*
X3802451Y5098087D1*
X3806298Y5101890D1*
X3808199Y5105736D1*
X3810101Y5111440D1*
Y5121035D1*
X3808199Y5126783D1*
X3806298Y5130586D1*
X3802451Y5134432D1*
X3796703Y5136334D1*
X3783306D1*
X3822452Y5128640D2*
X3826299Y5130586D1*
X3832047Y5136289D1*
Y5096142D1*
X688197Y734738D2*
Y694546D1*
X701594D1*
X707342Y696492D1*
X711189Y700294D1*
X713090Y704141D1*
X714991Y709845D1*
Y719440D1*
X713090Y725188D1*
X711189Y728990D1*
X707342Y732837D1*
X701594Y734738D1*
X688197D1*
X729288Y725143D2*
Y727045D1*
X731190Y730891D1*
X733091Y732793D1*
X736938Y734694D1*
X744587D1*
X748390Y732793D1*
X750291Y730891D1*
X752236Y727045D1*
Y723242D1*
X750291Y719395D1*
X746488Y713692D1*
X727343Y694546D1*
X754138D1*
X3542300Y5389778D2*
Y5359181D1*
X3540398Y5353433D1*
X3538453Y5351532D1*
X3534650Y5349586D1*
X3530804D1*
X3527001Y5351532D1*
X3525100Y5353433D1*
X3523154Y5359181D1*
Y5362984D1*
X3554651Y5382085D2*
X3558498Y5384030D1*
X3564246Y5389734D1*
Y5349586D1*
X2433700Y5389778D2*
Y5359181D1*
X2431798Y5353433D1*
X2429853Y5351532D1*
X2426050Y5349586D1*
X2422204D1*
X2418401Y5351532D1*
X2416500Y5353433D1*
X2414554Y5359181D1*
Y5362984D1*
X2447997Y5380184D2*
Y5382085D1*
X2449898Y5385932D1*
X2451799Y5387833D1*
X2455646Y5389734D1*
X2463295D1*
X2467098Y5387833D1*
X2468999Y5385932D1*
X2470944Y5382085D1*
Y5378282D1*
X2468999Y5374436D1*
X2465196Y5368732D1*
X2446051Y5349586D1*
X2472846D1*
X5981436Y2232593D2*
Y2201996D1*
X5979535Y2196248D1*
X5977589Y2194347D1*
X5973787Y2192401D1*
X5969940D1*
X5966137Y2194347D1*
X5964236Y2196248D1*
X5962291Y2201996D1*
Y2205799D1*
X5997634Y2232549D2*
X6018636D1*
X6007185Y2217251D1*
X6012933D1*
X6016735Y2215349D1*
X6018636Y2213448D1*
X6020582Y2207700D1*
Y2203897D1*
X6018636Y2198149D1*
X6014834Y2194303D1*
X6009086Y2192401D1*
X6003338D1*
X5997634Y2194303D1*
X5995733Y2196248D1*
X5993787Y2200051D1*
X4510013Y4989188D2*
Y4958591D1*
X4508112Y4952843D1*
X4506166Y4950941D1*
X4502363Y4948996D1*
X4498517D1*
X4494714Y4950941D1*
X4492813Y4952843D1*
X4490867Y4958591D1*
Y4962393D1*
X4541510Y4948996D2*
Y4989144D1*
X4522364Y4962393D1*
X4551060D1*
X1401121Y2055330D2*
Y2024732D1*
X1399220Y2018984D1*
X1397274Y2017083D1*
X1393472Y2015138D1*
X1389625D1*
X1385822Y2017083D1*
X1383921Y2018984D1*
X1381976Y2024732D1*
Y2028535D1*
X1436420Y2055285D2*
X1417319D1*
X1415418Y2038086D1*
X1417319Y2039987D1*
X1423067Y2041932D1*
X1428771D1*
X1434519Y2039987D1*
X1438366Y2036184D1*
X1440267Y2030436D1*
Y2026634D1*
X1438366Y2020886D1*
X1434519Y2017039D1*
X1428771Y2015138D1*
X1423067D1*
X1417319Y2017039D1*
X1415418Y2018984D1*
X1413472Y2022787D1*
X1948546Y4716649D2*
Y4686051D1*
X1946645Y4680303D1*
X1944700Y4678402D1*
X1940897Y4676457D1*
X1937050D1*
X1933248Y4678402D1*
X1931347Y4680303D1*
X1929401Y4686051D1*
Y4689854D1*
X1983846Y4710901D2*
X1981944Y4714703D1*
X1976196Y4716604D1*
X1972394D1*
X1966646Y4714703D1*
X1962799Y4708955D1*
X1960898Y4699404D1*
Y4689854D1*
X1962799Y4682205D1*
X1966646Y4678358D1*
X1972394Y4676457D1*
X1974295D1*
X1979999Y4678358D1*
X1983846Y4682205D1*
X1985747Y4687953D1*
Y4689854D1*
X1983846Y4695602D1*
X1979999Y4699404D1*
X1974295Y4701306D1*
X1972394D1*
X1966646Y4699404D1*
X1962799Y4695602D1*
X1960898Y4689854D1*
X4982839Y1433528D2*
X4979037Y1431671D1*
X4975190Y1427825D1*
X4973289Y1423978D1*
X4971343Y1418230D1*
Y1408679D1*
X4973289Y1402931D1*
X4975190Y1399129D1*
X4979037Y1395282D1*
X4982839Y1393381D1*
X4990489D1*
X4994335Y1395282D1*
X4998138Y1399129D1*
X5000039Y1402931D1*
X5001985Y1408679D1*
Y1418230D1*
X5000039Y1423978D1*
X4998138Y1427825D1*
X4994335Y1431671D1*
X4990489Y1433528D1*
X4982839D1*
X4988587Y1401030D2*
X5000039Y1389534D1*
X5014336Y1425835D2*
X5018183Y1427780D1*
X5023931Y1433484D1*
Y1393336D1*
X4986739Y2146028D2*
X4982937Y2144171D1*
X4979090Y2140325D1*
X4977189Y2136478D1*
X4975243Y2130730D1*
Y2121179D1*
X4977189Y2115431D1*
X4979090Y2111629D1*
X4982937Y2107782D1*
X4986739Y2105881D1*
X4994389D1*
X4998235Y2107782D1*
X5002038Y2111629D1*
X5003939Y2115431D1*
X5005885Y2121179D1*
Y2130730D1*
X5003939Y2136478D1*
X5002038Y2140325D1*
X4998235Y2144171D1*
X4994389Y2146028D1*
X4986739D1*
X4992487Y2113530D2*
X5003939Y2102034D1*
X5020182Y2136434D2*
Y2138335D1*
X5022083Y2142182D1*
X5023984Y2144083D1*
X5027831Y2145984D1*
X5035480D1*
X5039283Y2144083D1*
X5041184Y2142182D1*
X5043129Y2138335D1*
Y2134532D1*
X5041184Y2130686D1*
X5037381Y2124982D1*
X5018236Y2105836D1*
X5045031D1*
X2212239Y1048328D2*
Y1065528D1*
X2210294Y1071276D1*
X2208393Y1073222D1*
X2204590Y1075123D1*
X2200743D1*
X2196941Y1073222D1*
X2194995Y1071276D1*
X2193094Y1065528D1*
Y1048328D1*
X2233286D1*
X2212239Y1061726D2*
X2233286Y1075123D1*
X2202689Y1089420D2*
X2200788D1*
X2196941Y1091321D1*
X2195040Y1093222D1*
X2193138Y1097069D1*
Y1104718D1*
X2195040Y1108521D1*
X2196941Y1110422D1*
X2200788Y1112368D1*
X2204590D1*
X2208437Y1110422D1*
X2214141Y1106620D1*
X2233286Y1087474D1*
Y1114269D1*
X2212239Y1248328D2*
Y1265528D1*
X2210294Y1271276D1*
X2208393Y1273222D1*
X2204590Y1275123D1*
X2200743D1*
X2196941Y1273222D1*
X2194995Y1271276D1*
X2193094Y1265528D1*
Y1248328D1*
X2233286D1*
X2212239Y1261726D2*
X2233286Y1275123D1*
X2193138Y1291321D2*
Y1312323D1*
X2208437Y1300872D1*
Y1306620D1*
X2210338Y1310422D1*
X2212239Y1312323D1*
X2217987Y1314269D1*
X2221790D1*
X2227538Y1312323D1*
X2231385Y1308521D1*
X2233286Y1302773D1*
Y1297025D1*
X2231385Y1291321D1*
X2229439Y1289420D1*
X2225637Y1287474D1*
X2212239Y1447378D2*
Y1464577D1*
X2210294Y1470325D1*
X2208393Y1472271D1*
X2204590Y1474172D1*
X2200743D1*
X2196941Y1472271D1*
X2194995Y1470325D1*
X2193094Y1464577D1*
Y1447378D1*
X2233286D1*
X2212239Y1460775D2*
X2233286Y1474172D1*
Y1505669D2*
X2193138D1*
X2219889Y1486524D1*
Y1515219D1*
X1006202Y558035D2*
X1023402D1*
X1029150Y559980D1*
X1031095Y561881D1*
X1032997Y565684D1*
Y569531D1*
X1031095Y573333D1*
X1029150Y575279D1*
X1023402Y577180D1*
X1006202D1*
Y536988D1*
X1019599Y558035D2*
X1032997Y536988D1*
X1068296Y577136D2*
X1049195D1*
X1047294Y559936D1*
X1049195Y561837D1*
X1054943Y563783D1*
X1060647D1*
X1066395Y561837D1*
X1070242Y558035D1*
X1072143Y552287D1*
Y548484D1*
X1070242Y542736D1*
X1066395Y538889D1*
X1060647Y536988D1*
X1054943D1*
X1049195Y538889D1*
X1047294Y540835D1*
X1045348Y544637D1*
X2981830Y3377278D2*
Y3348583D1*
X2983731Y3342834D1*
X2987578Y3339032D1*
X2993326Y3337086D1*
X2997128D1*
X3002876Y3339032D1*
X3006723Y3342834D1*
X3008624Y3348583D1*
Y3377278D1*
X3020976Y3369585D2*
X3024822Y3371530D1*
X3030570Y3377234D1*
Y3337086D1*
X4960730Y3002278D2*
Y2973583D1*
X4962631Y2967834D1*
X4966478Y2964032D1*
X4972226Y2962086D1*
X4976028D1*
X4981776Y2964032D1*
X4985623Y2967834D1*
X4987524Y2973583D1*
Y3002278D1*
X5001821Y2992684D2*
Y2994585D1*
X5003722Y2998432D1*
X5005624Y3000333D1*
X5009470Y3002234D1*
X5017120D1*
X5020922Y3000333D1*
X5022824Y2998432D1*
X5024769Y2994585D1*
Y2990782D1*
X5022824Y2986936D1*
X5019021Y2981232D1*
X4999876Y2962086D1*
X5026670D1*
X5439841Y923029D2*
D108*
X5461341D1*
X5468526Y925461D1*
X5470957Y927837D1*
X5473334Y932590D1*
Y937399D1*
X5470957Y942152D1*
X5468526Y944584D1*
X5461341Y946960D1*
X5439841D1*
Y896720D1*
X5456587Y923029D2*
X5473334Y896720D1*
X5488773Y915844D2*
X5517458D1*
Y920652D1*
X5515082Y925461D1*
X5512705Y927837D1*
X5507896Y930214D1*
X5500711D1*
X5495958Y927837D1*
X5491150Y923029D1*
X5488773Y915844D1*
Y911091D1*
X5491150Y903906D1*
X5495958Y899152D1*
X5500711Y896720D1*
X5507896D1*
X5512705Y899152D1*
X5517458Y903906D1*
X5532897Y915844D2*
X5561582D1*
Y920652D1*
X5559206Y925461D1*
X5556829Y927837D1*
X5552021Y930214D1*
X5544836D1*
X5540082Y927837D1*
X5535274Y923029D1*
X5532897Y915844D1*
Y911091D1*
X5535274Y903906D1*
X5540082Y899152D1*
X5544836Y896720D1*
X5552021D1*
X5556829Y899152D1*
X5561582Y903906D1*
X5605706Y946960D2*
Y896720D1*
Y923029D2*
X5600953Y927837D1*
X5596145Y930214D1*
X5588960D1*
X5584207Y927837D1*
X5579398Y923029D1*
X5577022Y915844D1*
Y911091D1*
X5579398Y903906D1*
X5584207Y899152D1*
X5588960Y896720D1*
X5596145D1*
X5600953Y899152D1*
X5605706Y903906D1*
X5703240Y939775D2*
X5698487Y944584D1*
X5691302Y946960D1*
X5681740D1*
X5674555Y944584D1*
X5669747Y939775D1*
Y935022D1*
X5672178Y930214D1*
X5674555Y927837D1*
X5679308Y925461D1*
X5693678Y920652D1*
X5698487Y918276D1*
X5700863Y915844D1*
X5703240Y911091D1*
Y903906D1*
X5698487Y899152D1*
X5691302Y896720D1*
X5681740D1*
X5674555Y899152D1*
X5669747Y903906D1*
X5718679Y930214D2*
X5728241Y896720D1*
X5737802Y930214D1*
X5747364Y896720D1*
X5756926Y930214D1*
X5514841Y1035529D2*
X5536341D1*
X5543526Y1037961D1*
X5545957Y1040337D1*
X5548334Y1045090D1*
Y1049899D1*
X5545957Y1054652D1*
X5543526Y1057084D1*
X5536341Y1059460D1*
X5514841D1*
Y1009220D1*
X5531587Y1035529D2*
X5548334Y1009220D1*
X5563773Y1028344D2*
X5592458D1*
Y1033152D1*
X5590082Y1037961D1*
X5587705Y1040337D1*
X5582896Y1042714D1*
X5575711D1*
X5570958Y1040337D1*
X5566150Y1035529D1*
X5563773Y1028344D1*
Y1023591D1*
X5566150Y1016406D1*
X5570958Y1011652D1*
X5575711Y1009220D1*
X5582896D1*
X5587705Y1011652D1*
X5592458Y1016406D1*
X5607897Y1028344D2*
X5636582D1*
Y1033152D1*
X5634206Y1037961D1*
X5631829Y1040337D1*
X5627021Y1042714D1*
X5619836D1*
X5615082Y1040337D1*
X5610274Y1035529D1*
X5607897Y1028344D1*
Y1023591D1*
X5610274Y1016406D1*
X5615082Y1011652D1*
X5619836Y1009220D1*
X5627021D1*
X5631829Y1011652D1*
X5636582Y1016406D1*
X5680706Y1059460D2*
Y1009220D1*
Y1035529D2*
X5675953Y1040337D1*
X5671145Y1042714D1*
X5663960D1*
X5659207Y1040337D1*
X5654398Y1035529D1*
X5652022Y1028344D1*
Y1023591D1*
X5654398Y1016406D1*
X5659207Y1011652D1*
X5663960Y1009220D1*
X5671145D1*
X5675953Y1011652D1*
X5680706Y1016406D1*
X5778240Y1052275D2*
X5773487Y1057084D1*
X5766302Y1059460D1*
X5756740D1*
X5749555Y1057084D1*
X5744747Y1052275D1*
Y1047522D1*
X5747178Y1042714D1*
X5749555Y1040337D1*
X5754308Y1037961D1*
X5768678Y1033152D1*
X5773487Y1030776D1*
X5775863Y1028344D1*
X5778240Y1023591D1*
Y1016406D1*
X5773487Y1011652D1*
X5766302Y1009220D1*
X5756740D1*
X5749555Y1011652D1*
X5744747Y1016406D1*
X5793679Y1042714D2*
X5803241Y1009220D1*
X5812802Y1042714D1*
X5822364Y1009220D1*
X5831926Y1042714D1*
X5495957Y1159460D2*
X5464841D1*
Y1109220D1*
Y1135529D2*
X5483964D1*
X5511397Y1128344D2*
X5540082D1*
Y1133152D1*
X5537705Y1137961D1*
X5535328Y1140337D1*
X5530520Y1142714D1*
X5523335D1*
X5518582Y1140337D1*
X5513773Y1135529D1*
X5511397Y1128344D1*
Y1123591D1*
X5513773Y1116406D1*
X5518582Y1111652D1*
X5523335Y1109220D1*
X5530520D1*
X5535328Y1111652D1*
X5540082Y1116406D1*
X5555521Y1128344D2*
X5584206D1*
Y1133152D1*
X5581829Y1137961D1*
X5579452Y1140337D1*
X5574644Y1142714D1*
X5567459D1*
X5562706Y1140337D1*
X5557897Y1135529D1*
X5555521Y1128344D1*
Y1123591D1*
X5557897Y1116406D1*
X5562706Y1111652D1*
X5567459Y1109220D1*
X5574644D1*
X5579452Y1111652D1*
X5584206Y1116406D1*
X5628330Y1159460D2*
Y1109220D1*
Y1135529D2*
X5623577Y1140337D1*
X5618768Y1142714D1*
X5611583D1*
X5606830Y1140337D1*
X5602022Y1135529D1*
X5599645Y1128344D1*
Y1123591D1*
X5602022Y1116406D1*
X5606830Y1111652D1*
X5611583Y1109220D1*
X5618768D1*
X5623577Y1111652D1*
X5628330Y1116406D1*
X5725863Y1152275D2*
X5721110Y1157084D1*
X5713925Y1159460D1*
X5704364D1*
X5697178Y1157084D1*
X5692370Y1152275D1*
Y1147522D1*
X5694802Y1142714D1*
X5697178Y1140337D1*
X5701932Y1137961D1*
X5716302Y1133152D1*
X5721110Y1130776D1*
X5723487Y1128344D1*
X5725863Y1123591D1*
Y1116406D1*
X5721110Y1111652D1*
X5713925Y1109220D1*
X5704364D1*
X5697178Y1111652D1*
X5692370Y1116406D1*
X5748488Y1159460D2*
Y1118782D1*
X5750864Y1111652D1*
X5755673Y1109220D1*
X5760426D1*
X5741303Y1142714D2*
X5758049D1*
X5775865D2*
Y1092474D1*
Y1135529D2*
X5780674Y1140282D1*
X5785427Y1142714D1*
X5792612D1*
X5797420Y1140282D1*
X5802173Y1135529D1*
X5804605Y1128344D1*
Y1123535D1*
X5802173Y1116406D1*
X5797420Y1111597D1*
X5792612Y1109220D1*
X5785427D1*
X5780674Y1111597D1*
X5775865Y1116406D1*
X5820045Y1142714D2*
Y1109220D1*
Y1128344D2*
X5822476Y1135529D1*
X5827230Y1140337D1*
X5832038Y1142714D1*
X5839223D1*
X5495957Y1259460D2*
X5464841D1*
Y1209220D1*
Y1235529D2*
X5483964D1*
X5511397Y1228344D2*
X5540082D1*
Y1233152D1*
X5537705Y1237961D1*
X5535328Y1240337D1*
X5530520Y1242714D1*
X5523335D1*
X5518582Y1240337D1*
X5513773Y1235529D1*
X5511397Y1228344D1*
Y1223591D1*
X5513773Y1216406D1*
X5518582Y1211652D1*
X5523335Y1209220D1*
X5530520D1*
X5535328Y1211652D1*
X5540082Y1216406D1*
X5555521Y1228344D2*
X5584206D1*
Y1233152D1*
X5581829Y1237961D1*
X5579452Y1240337D1*
X5574644Y1242714D1*
X5567459D1*
X5562706Y1240337D1*
X5557897Y1235529D1*
X5555521Y1228344D1*
Y1223591D1*
X5557897Y1216406D1*
X5562706Y1211652D1*
X5567459Y1209220D1*
X5574644D1*
X5579452Y1211652D1*
X5584206Y1216406D1*
X5628330Y1259460D2*
Y1209220D1*
Y1235529D2*
X5623577Y1240337D1*
X5618768Y1242714D1*
X5611583D1*
X5606830Y1240337D1*
X5602022Y1235529D1*
X5599645Y1228344D1*
Y1223591D1*
X5602022Y1216406D1*
X5606830Y1211652D1*
X5611583Y1209220D1*
X5618768D1*
X5623577Y1211652D1*
X5628330Y1216406D1*
X5725863Y1252275D2*
X5721110Y1257084D1*
X5713925Y1259460D1*
X5704364D1*
X5697178Y1257084D1*
X5692370Y1252275D1*
Y1247522D1*
X5694802Y1242714D1*
X5697178Y1240337D1*
X5701932Y1237961D1*
X5716302Y1233152D1*
X5721110Y1230776D1*
X5723487Y1228344D1*
X5725863Y1223591D1*
Y1216406D1*
X5721110Y1211652D1*
X5713925Y1209220D1*
X5704364D1*
X5697178Y1211652D1*
X5692370Y1216406D1*
X5748488Y1259460D2*
Y1218782D1*
X5750864Y1211652D1*
X5755673Y1209220D1*
X5760426D1*
X5741303Y1242714D2*
X5758049D1*
X5775865D2*
Y1192474D1*
Y1235529D2*
X5780674Y1240282D1*
X5785427Y1242714D1*
X5792612D1*
X5797420Y1240282D1*
X5802173Y1235529D1*
X5804605Y1228344D1*
Y1223535D1*
X5802173Y1216406D1*
X5797420Y1211597D1*
X5792612Y1209220D1*
X5785427D1*
X5780674Y1211597D1*
X5775865Y1216406D1*
X5820045Y1242714D2*
Y1209220D1*
Y1228344D2*
X5822476Y1235529D1*
X5827230Y1240337D1*
X5832038Y1242714D1*
X5839223D1*
X5495957Y1346960D2*
X5464841D1*
Y1296720D1*
Y1323029D2*
X5483964D1*
X5511397Y1315844D2*
X5540082D1*
Y1320652D1*
X5537705Y1325461D1*
X5535328Y1327837D1*
X5530520Y1330214D1*
X5523335D1*
X5518582Y1327837D1*
X5513773Y1323029D1*
X5511397Y1315844D1*
Y1311091D1*
X5513773Y1303906D1*
X5518582Y1299152D1*
X5523335Y1296720D1*
X5530520D1*
X5535328Y1299152D1*
X5540082Y1303906D1*
X5555521Y1315844D2*
X5584206D1*
Y1320652D1*
X5581829Y1325461D1*
X5579452Y1327837D1*
X5574644Y1330214D1*
X5567459D1*
X5562706Y1327837D1*
X5557897Y1323029D1*
X5555521Y1315844D1*
Y1311091D1*
X5557897Y1303906D1*
X5562706Y1299152D1*
X5567459Y1296720D1*
X5574644D1*
X5579452Y1299152D1*
X5584206Y1303906D1*
X5628330Y1346960D2*
Y1296720D1*
Y1323029D2*
X5623577Y1327837D1*
X5618768Y1330214D1*
X5611583D1*
X5606830Y1327837D1*
X5602022Y1323029D1*
X5599645Y1315844D1*
Y1311091D1*
X5602022Y1303906D1*
X5606830Y1299152D1*
X5611583Y1296720D1*
X5618768D1*
X5623577Y1299152D1*
X5628330Y1303906D1*
X5725863Y1339775D2*
X5721110Y1344584D1*
X5713925Y1346960D1*
X5704364D1*
X5697178Y1344584D1*
X5692370Y1339775D1*
Y1335022D1*
X5694802Y1330214D1*
X5697178Y1327837D1*
X5701932Y1325461D1*
X5716302Y1320652D1*
X5721110Y1318276D1*
X5723487Y1315844D1*
X5725863Y1311091D1*
Y1303906D1*
X5721110Y1299152D1*
X5713925Y1296720D1*
X5704364D1*
X5697178Y1299152D1*
X5692370Y1303906D1*
X5748488Y1346960D2*
Y1306282D1*
X5750864Y1299152D1*
X5755673Y1296720D1*
X5760426D1*
X5741303Y1330214D2*
X5758049D1*
X5775865D2*
Y1279974D1*
Y1323029D2*
X5780674Y1327782D1*
X5785427Y1330214D1*
X5792612D1*
X5797420Y1327782D1*
X5802173Y1323029D1*
X5804605Y1315844D1*
Y1311035D1*
X5802173Y1303906D1*
X5797420Y1299097D1*
X5792612Y1296720D1*
X5785427D1*
X5780674Y1299097D1*
X5775865Y1303906D1*
X5820045Y1330214D2*
Y1296720D1*
Y1315844D2*
X5822476Y1323029D1*
X5827230Y1327837D1*
X5832038Y1330214D1*
X5839223D1*
X5495957Y1446960D2*
X5464841D1*
Y1396720D1*
Y1423029D2*
X5483964D1*
X5511397Y1415844D2*
X5540082D1*
Y1420652D1*
X5537705Y1425461D1*
X5535328Y1427837D1*
X5530520Y1430214D1*
X5523335D1*
X5518582Y1427837D1*
X5513773Y1423029D1*
X5511397Y1415844D1*
Y1411091D1*
X5513773Y1403906D1*
X5518582Y1399152D1*
X5523335Y1396720D1*
X5530520D1*
X5535328Y1399152D1*
X5540082Y1403906D1*
X5555521Y1415844D2*
X5584206D1*
Y1420652D1*
X5581829Y1425461D1*
X5579452Y1427837D1*
X5574644Y1430214D1*
X5567459D1*
X5562706Y1427837D1*
X5557897Y1423029D1*
X5555521Y1415844D1*
Y1411091D1*
X5557897Y1403906D1*
X5562706Y1399152D1*
X5567459Y1396720D1*
X5574644D1*
X5579452Y1399152D1*
X5584206Y1403906D1*
X5628330Y1446960D2*
Y1396720D1*
Y1423029D2*
X5623577Y1427837D1*
X5618768Y1430214D1*
X5611583D1*
X5606830Y1427837D1*
X5602022Y1423029D1*
X5599645Y1415844D1*
Y1411091D1*
X5602022Y1403906D1*
X5606830Y1399152D1*
X5611583Y1396720D1*
X5618768D1*
X5623577Y1399152D1*
X5628330Y1403906D1*
X5725863Y1439775D2*
X5721110Y1444584D1*
X5713925Y1446960D1*
X5704364D1*
X5697178Y1444584D1*
X5692370Y1439775D1*
Y1435022D1*
X5694802Y1430214D1*
X5697178Y1427837D1*
X5701932Y1425461D1*
X5716302Y1420652D1*
X5721110Y1418276D1*
X5723487Y1415844D1*
X5725863Y1411091D1*
Y1403906D1*
X5721110Y1399152D1*
X5713925Y1396720D1*
X5704364D1*
X5697178Y1399152D1*
X5692370Y1403906D1*
X5748488Y1446960D2*
Y1406282D1*
X5750864Y1399152D1*
X5755673Y1396720D1*
X5760426D1*
X5741303Y1430214D2*
X5758049D1*
X5775865D2*
Y1379974D1*
Y1423029D2*
X5780674Y1427782D1*
X5785427Y1430214D1*
X5792612D1*
X5797420Y1427782D1*
X5802173Y1423029D1*
X5804605Y1415844D1*
Y1411035D1*
X5802173Y1403906D1*
X5797420Y1399097D1*
X5792612Y1396720D1*
X5785427D1*
X5780674Y1399097D1*
X5775865Y1403906D1*
X5820045Y1430214D2*
Y1396720D1*
Y1415844D2*
X5822476Y1423029D1*
X5827230Y1427837D1*
X5832038Y1430214D1*
X5839223D1*
X5711341Y1543340D2*
Y1500285D1*
X5689841Y1521785D2*
X5732896D1*
X5777020Y1546905D2*
X5753143D1*
X5750767Y1525405D1*
X5753143Y1527782D1*
X5760328Y1530214D1*
X5767458D1*
X5774643Y1527782D1*
X5779452Y1523029D1*
X5781828Y1515844D1*
Y1511091D1*
X5779452Y1503906D1*
X5774643Y1499097D1*
X5767458Y1496720D1*
X5760328D1*
X5753143Y1499097D1*
X5750767Y1501529D1*
X5748335Y1506282D1*
X5797267Y1546960D2*
X5816391Y1496720D1*
X5835514Y1546960D1*
X5502341Y1908152D2*
X5523896D1*
X5531026Y1910529D1*
X5533457Y1912961D1*
X5535834Y1917714D1*
Y1924899D1*
X5533457Y1929652D1*
X5531026Y1932084D1*
X5523896Y1934460D1*
X5502341D1*
Y1884220D1*
X5551273Y1903344D2*
X5579958D1*
Y1908152D1*
X5577582Y1912961D1*
X5575205Y1915337D1*
X5570396Y1917714D1*
X5563211D1*
X5558458Y1915337D1*
X5553650Y1910529D1*
X5551273Y1903344D1*
Y1898591D1*
X5553650Y1891406D1*
X5558458Y1886652D1*
X5563211Y1884220D1*
X5570396D1*
X5575205Y1886652D1*
X5579958Y1891406D1*
X5595397Y1917714D2*
Y1884220D1*
Y1908152D2*
X5602582Y1915337D1*
X5607391Y1917714D1*
X5614521D1*
X5619329Y1915337D1*
X5621706Y1908152D1*
Y1884220D1*
X5719239Y1927275D2*
X5714486Y1932084D1*
X5707301Y1934460D1*
X5697739D1*
X5690554Y1932084D1*
X5685746Y1927275D1*
Y1922522D1*
X5688178Y1917714D1*
X5690554Y1915337D1*
X5695308Y1912961D1*
X5709678Y1908152D1*
X5714486Y1905776D1*
X5716863Y1903344D1*
X5719239Y1898591D1*
Y1891406D1*
X5714486Y1886652D1*
X5707301Y1884220D1*
X5697739D1*
X5690554Y1886652D1*
X5685746Y1891406D1*
X5741864Y1934460D2*
Y1893782D1*
X5744240Y1886652D1*
X5749049Y1884220D1*
X5753802D1*
X5734678Y1917714D2*
X5751425D1*
X5769241D2*
Y1867474D1*
Y1910529D2*
X5774049Y1915282D1*
X5778803Y1917714D1*
X5785988D1*
X5790796Y1915282D1*
X5795549Y1910529D1*
X5797981Y1903344D1*
Y1898535D1*
X5795549Y1891406D1*
X5790796Y1886597D1*
X5785988Y1884220D1*
X5778803D1*
X5774049Y1886597D1*
X5769241Y1891406D1*
X5813420Y1917714D2*
Y1884220D1*
Y1903344D2*
X5815852Y1910529D1*
X5820605Y1915337D1*
X5825414Y1917714D1*
X5832599D1*
X5502341Y1620652D2*
X5523896D1*
X5531026Y1623029D1*
X5533457Y1625461D1*
X5535834Y1630214D1*
Y1637399D1*
X5533457Y1642152D1*
X5531026Y1644584D1*
X5523896Y1646960D1*
X5502341D1*
Y1596720D1*
X5551273Y1615844D2*
X5579958D1*
Y1620652D1*
X5577582Y1625461D1*
X5575205Y1627837D1*
X5570396Y1630214D1*
X5563211D1*
X5558458Y1627837D1*
X5553650Y1623029D1*
X5551273Y1615844D1*
Y1611091D1*
X5553650Y1603906D1*
X5558458Y1599152D1*
X5563211Y1596720D1*
X5570396D1*
X5575205Y1599152D1*
X5579958Y1603906D1*
X5595397Y1630214D2*
Y1596720D1*
Y1620652D2*
X5602582Y1627837D1*
X5607391Y1630214D1*
X5614521D1*
X5619329Y1627837D1*
X5621706Y1620652D1*
Y1596720D1*
X5719239Y1639775D2*
X5714486Y1644584D1*
X5707301Y1646960D1*
X5697739D1*
X5690554Y1644584D1*
X5685746Y1639775D1*
Y1635022D1*
X5688178Y1630214D1*
X5690554Y1627837D1*
X5695308Y1625461D1*
X5709678Y1620652D1*
X5714486Y1618276D1*
X5716863Y1615844D1*
X5719239Y1611091D1*
Y1603906D1*
X5714486Y1599152D1*
X5707301Y1596720D1*
X5697739D1*
X5690554Y1599152D1*
X5685746Y1603906D1*
X5741864Y1646960D2*
Y1606282D1*
X5744240Y1599152D1*
X5749049Y1596720D1*
X5753802D1*
X5734678Y1630214D2*
X5751425D1*
X5769241D2*
Y1579974D1*
Y1623029D2*
X5774049Y1627782D1*
X5778803Y1630214D1*
X5785988D1*
X5790796Y1627782D1*
X5795549Y1623029D1*
X5797981Y1615844D1*
Y1611035D1*
X5795549Y1603906D1*
X5790796Y1599097D1*
X5785988Y1596720D1*
X5778803D1*
X5774049Y1599097D1*
X5769241Y1603906D1*
X5813420Y1630214D2*
Y1596720D1*
Y1615844D2*
X5815852Y1623029D1*
X5820605Y1627837D1*
X5825414Y1630214D1*
X5832599D1*
X5502341Y1720652D2*
X5523896D1*
X5531026Y1723029D1*
X5533457Y1725461D1*
X5535834Y1730214D1*
Y1737399D1*
X5533457Y1742152D1*
X5531026Y1744584D1*
X5523896Y1746960D1*
X5502341D1*
Y1696720D1*
X5551273Y1715844D2*
X5579958D1*
Y1720652D1*
X5577582Y1725461D1*
X5575205Y1727837D1*
X5570396Y1730214D1*
X5563211D1*
X5558458Y1727837D1*
X5553650Y1723029D1*
X5551273Y1715844D1*
Y1711091D1*
X5553650Y1703906D1*
X5558458Y1699152D1*
X5563211Y1696720D1*
X5570396D1*
X5575205Y1699152D1*
X5579958Y1703906D1*
X5595397Y1730214D2*
Y1696720D1*
Y1720652D2*
X5602582Y1727837D1*
X5607391Y1730214D1*
X5614521D1*
X5619329Y1727837D1*
X5621706Y1720652D1*
Y1696720D1*
X5719239Y1739775D2*
X5714486Y1744584D1*
X5707301Y1746960D1*
X5697739D1*
X5690554Y1744584D1*
X5685746Y1739775D1*
Y1735022D1*
X5688178Y1730214D1*
X5690554Y1727837D1*
X5695308Y1725461D1*
X5709678Y1720652D1*
X5714486Y1718276D1*
X5716863Y1715844D1*
X5719239Y1711091D1*
Y1703906D1*
X5714486Y1699152D1*
X5707301Y1696720D1*
X5697739D1*
X5690554Y1699152D1*
X5685746Y1703906D1*
X5741864Y1746960D2*
Y1706282D1*
X5744240Y1699152D1*
X5749049Y1696720D1*
X5753802D1*
X5734678Y1730214D2*
X5751425D1*
X5769241D2*
Y1679974D1*
Y1723029D2*
X5774049Y1727782D1*
X5778803Y1730214D1*
X5785988D1*
X5790796Y1727782D1*
X5795549Y1723029D1*
X5797981Y1715844D1*
Y1711035D1*
X5795549Y1703906D1*
X5790796Y1699097D1*
X5785988Y1696720D1*
X5778803D1*
X5774049Y1699097D1*
X5769241Y1703906D1*
X5813420Y1730214D2*
Y1696720D1*
Y1715844D2*
X5815852Y1723029D1*
X5820605Y1727837D1*
X5825414Y1730214D1*
X5832599D1*
X5502341Y1820652D2*
X5523896D1*
X5531026Y1823029D1*
X5533457Y1825461D1*
X5535834Y1830214D1*
Y1837399D1*
X5533457Y1842152D1*
X5531026Y1844584D1*
X5523896Y1846960D1*
X5502341D1*
Y1796720D1*
X5551273Y1815844D2*
X5579958D1*
Y1820652D1*
X5577582Y1825461D1*
X5575205Y1827837D1*
X5570396Y1830214D1*
X5563211D1*
X5558458Y1827837D1*
X5553650Y1823029D1*
X5551273Y1815844D1*
Y1811091D1*
X5553650Y1803906D1*
X5558458Y1799152D1*
X5563211Y1796720D1*
X5570396D1*
X5575205Y1799152D1*
X5579958Y1803906D1*
X5595397Y1830214D2*
Y1796720D1*
Y1820652D2*
X5602582Y1827837D1*
X5607391Y1830214D1*
X5614521D1*
X5619329Y1827837D1*
X5621706Y1820652D1*
Y1796720D1*
X5719239Y1839775D2*
X5714486Y1844584D1*
X5707301Y1846960D1*
X5697739D1*
X5690554Y1844584D1*
X5685746Y1839775D1*
Y1835022D1*
X5688178Y1830214D1*
X5690554Y1827837D1*
X5695308Y1825461D1*
X5709678Y1820652D1*
X5714486Y1818276D1*
X5716863Y1815844D1*
X5719239Y1811091D1*
Y1803906D1*
X5714486Y1799152D1*
X5707301Y1796720D1*
X5697739D1*
X5690554Y1799152D1*
X5685746Y1803906D1*
X5741864Y1846960D2*
Y1806282D1*
X5744240Y1799152D1*
X5749049Y1796720D1*
X5753802D1*
X5734678Y1830214D2*
X5751425D1*
X5769241D2*
Y1779974D1*
Y1823029D2*
X5774049Y1827782D1*
X5778803Y1830214D1*
X5785988D1*
X5790796Y1827782D1*
X5795549Y1823029D1*
X5797981Y1815844D1*
Y1811035D1*
X5795549Y1803906D1*
X5790796Y1799097D1*
X5785988Y1796720D1*
X5778803D1*
X5774049Y1799097D1*
X5769241Y1803906D1*
X5813420Y1830214D2*
Y1796720D1*
Y1815844D2*
X5815852Y1823029D1*
X5820605Y1827837D1*
X5825414Y1830214D1*
X5832599D1*
X5573334Y2027275D2*
X5568581Y2032084D1*
X5561396Y2034460D1*
X5551834D1*
X5544649Y2032084D1*
X5539841Y2027275D1*
Y2022522D1*
X5542273Y2017714D1*
X5544649Y2015337D1*
X5549402Y2012961D1*
X5563772Y2008152D1*
X5568581Y2005776D1*
X5570957Y2003344D1*
X5573334Y1998591D1*
Y1991406D1*
X5568581Y1986652D1*
X5561396Y1984220D1*
X5551834D1*
X5544649Y1986652D1*
X5539841Y1991406D1*
X5600711Y2017714D2*
X5595958Y2015337D1*
X5591150Y2010529D1*
X5588773Y2003344D1*
Y1998591D1*
X5591150Y1991406D1*
X5595958Y1986652D1*
X5600711Y1984220D1*
X5607896D1*
X5612705Y1986652D1*
X5617458Y1991406D1*
X5619890Y1998591D1*
Y2003344D1*
X5617458Y2010529D1*
X5612705Y2015337D1*
X5607896Y2017714D1*
X5600711D1*
X5635329Y2034460D2*
Y1984220D1*
X5650768Y2003344D2*
X5679453D1*
Y2008152D1*
X5677077Y2012961D1*
X5674700Y2015337D1*
X5669892Y2017714D1*
X5662707D1*
X5657954Y2015337D1*
X5653145Y2010529D1*
X5650768Y2003344D1*
Y1998591D1*
X5653145Y1991406D1*
X5657954Y1986652D1*
X5662707Y1984220D1*
X5669892D1*
X5674700Y1986652D1*
X5679453Y1991406D1*
X5694893Y2017714D2*
Y1984220D1*
Y2008152D2*
X5702078Y2015337D1*
X5706886Y2017714D1*
X5714016D1*
X5718824Y2015337D1*
X5721201Y2008152D1*
Y1984220D1*
X5748578Y2017714D2*
X5743825Y2015337D1*
X5739017Y2010529D1*
X5736640Y2003344D1*
Y1998591D1*
X5739017Y1991406D1*
X5743825Y1986652D1*
X5748578Y1984220D1*
X5755763D1*
X5760572Y1986652D1*
X5765325Y1991406D1*
X5767757Y1998591D1*
Y2003344D1*
X5765325Y2010529D1*
X5760572Y2015337D1*
X5755763Y2017714D1*
X5748578D1*
X5783196Y2034460D2*
X5785573Y2032084D1*
X5788005Y2034460D1*
X5785573Y2036892D1*
X5783196Y2034460D1*
X5785573Y2017714D2*
Y1984220D1*
X5832129Y2034460D2*
Y1984220D1*
Y2010529D2*
X5827376Y2015337D1*
X5822567Y2017714D1*
X5815382D1*
X5810629Y2015337D1*
X5805820Y2010529D1*
X5803444Y2003344D1*
Y1998591D1*
X5805820Y1991406D1*
X5810629Y1986652D1*
X5815382Y1984220D1*
X5822567D1*
X5827376Y1986652D1*
X5832129Y1991406D1*
X5560834Y2127275D2*
X5556081Y2132084D1*
X5548896Y2134460D1*
X5539334D1*
X5532149Y2132084D1*
X5527341Y2127275D1*
Y2122522D1*
X5529773Y2117714D1*
X5532149Y2115337D1*
X5536902Y2112961D1*
X5551272Y2108152D1*
X5556081Y2105776D1*
X5558457Y2103344D1*
X5560834Y2098591D1*
Y2091406D1*
X5556081Y2086652D1*
X5548896Y2084220D1*
X5539334D1*
X5532149Y2086652D1*
X5527341Y2091406D1*
X5588211Y2117714D2*
X5583458Y2115337D1*
X5578650Y2110529D1*
X5576273Y2103344D1*
Y2098591D1*
X5578650Y2091406D1*
X5583458Y2086652D1*
X5588211Y2084220D1*
X5595396D1*
X5600205Y2086652D1*
X5604958Y2091406D1*
X5607390Y2098591D1*
Y2103344D1*
X5604958Y2110529D1*
X5600205Y2115337D1*
X5595396Y2117714D1*
X5588211D1*
X5622829Y2134460D2*
Y2084220D1*
X5638268Y2103344D2*
X5666953D1*
Y2108152D1*
X5664577Y2112961D1*
X5662200Y2115337D1*
X5657392Y2117714D1*
X5650207D1*
X5645454Y2115337D1*
X5640645Y2110529D1*
X5638268Y2103344D1*
Y2098591D1*
X5640645Y2091406D1*
X5645454Y2086652D1*
X5650207Y2084220D1*
X5657392D1*
X5662200Y2086652D1*
X5666953Y2091406D1*
X5682393Y2117714D2*
Y2084220D1*
Y2108152D2*
X5689578Y2115337D1*
X5694386Y2117714D1*
X5701516D1*
X5706324Y2115337D1*
X5708701Y2108152D1*
Y2084220D1*
X5736078Y2117714D2*
X5731325Y2115337D1*
X5726517Y2110529D1*
X5724140Y2103344D1*
Y2098591D1*
X5726517Y2091406D1*
X5731325Y2086652D1*
X5736078Y2084220D1*
X5743263D1*
X5748072Y2086652D1*
X5752825Y2091406D1*
X5755257Y2098591D1*
Y2103344D1*
X5752825Y2110529D1*
X5748072Y2115337D1*
X5743263Y2117714D1*
X5736078D1*
X5770696Y2134460D2*
X5773073Y2132084D1*
X5775505Y2134460D1*
X5773073Y2136892D1*
X5770696Y2134460D1*
X5773073Y2117714D2*
Y2084220D1*
X5819629Y2134460D2*
Y2084220D1*
Y2110529D2*
X5814876Y2115337D1*
X5810067Y2117714D1*
X5802882D1*
X5798129Y2115337D1*
X5793320Y2110529D1*
X5790944Y2103344D1*
Y2098591D1*
X5793320Y2091406D1*
X5798129Y2086652D1*
X5802882Y2084220D1*
X5810067D1*
X5814876Y2086652D1*
X5819629Y2091406D1*
X1669073Y1911302D2*
X1690628D1*
X1697758Y1913678D1*
X1700190Y1916110D1*
X1702566Y1920863D1*
Y1928048D1*
X1700190Y1932802D1*
X1697758Y1935233D1*
X1690628Y1937610D1*
X1669073D1*
Y1887370D1*
X1729944Y1920863D2*
X1725191Y1918487D1*
X1720382Y1913678D1*
X1718006Y1906493D1*
Y1901740D1*
X1720382Y1894555D1*
X1725191Y1889802D1*
X1729944Y1887370D1*
X1737129D1*
X1741937Y1889802D1*
X1746690Y1894555D1*
X1749122Y1901740D1*
Y1906493D1*
X1746690Y1913678D1*
X1741937Y1918487D1*
X1737129Y1920863D1*
X1729944D1*
X1764562D2*
X1774123Y1887370D1*
X1783685Y1920863D1*
X1793246Y1887370D1*
X1802808Y1920863D1*
X1818247Y1906493D2*
X1846932D1*
Y1911302D1*
X1844556Y1916110D1*
X1842179Y1918487D1*
X1837371Y1920863D1*
X1830185D1*
X1825432Y1918487D1*
X1820624Y1913678D1*
X1818247Y1906493D1*
Y1901740D1*
X1820624Y1894555D1*
X1825432Y1889802D1*
X1830185Y1887370D1*
X1837371D1*
X1842179Y1889802D1*
X1846932Y1894555D1*
X1862371Y1920863D2*
Y1887370D1*
Y1906493D2*
X1864803Y1913678D1*
X1869556Y1918487D1*
X1874365Y1920863D1*
X1881550D1*
X1979083Y1930425D2*
X1974330Y1935233D1*
X1967145Y1937610D1*
X1957584D1*
X1950399Y1935233D1*
X1945590Y1930425D1*
Y1925672D1*
X1948022Y1920863D1*
X1950399Y1918487D1*
X1955152Y1916110D1*
X1969522Y1911302D1*
X1974330Y1908925D1*
X1976707Y1906493D1*
X1979083Y1901740D1*
Y1894555D1*
X1974330Y1889802D1*
X1967145Y1887370D1*
X1957584D1*
X1950399Y1889802D1*
X1945590Y1894555D1*
X1994523Y1920863D2*
X2004084Y1887370D1*
X2013646Y1920863D1*
X2023208Y1887370D1*
X2032769Y1920863D1*
X1700963Y1701951D2*
X1722518D1*
X1729648Y1704328D1*
X1732079Y1706760D1*
X1734456Y1711513D1*
Y1718698D1*
X1732079Y1723451D1*
X1729648Y1725883D1*
X1722518Y1728260D1*
X1700963D1*
Y1678020D1*
X1761834Y1711513D2*
X1757080Y1709136D1*
X1752272Y1704328D1*
X1749895Y1697143D1*
Y1692390D1*
X1752272Y1685205D1*
X1757080Y1680452D1*
X1761834Y1678020D1*
X1769019D1*
X1773827Y1680452D1*
X1778580Y1685205D1*
X1781012Y1692390D1*
Y1697143D1*
X1778580Y1704328D1*
X1773827Y1709136D1*
X1769019Y1711513D1*
X1761834D1*
X1796451D2*
X1806013Y1678020D1*
X1815575Y1711513D1*
X1825136Y1678020D1*
X1834698Y1711513D1*
X1850137Y1697143D2*
X1878822D1*
Y1701951D1*
X1876445Y1706760D1*
X1874069Y1709136D1*
X1869260Y1711513D1*
X1862075D1*
X1857322Y1709136D1*
X1852514Y1704328D1*
X1850137Y1697143D1*
Y1692390D1*
X1852514Y1685205D1*
X1857322Y1680452D1*
X1862075Y1678020D1*
X1869260D1*
X1874069Y1680452D1*
X1878822Y1685205D1*
X1894261Y1711513D2*
Y1678020D1*
Y1697143D2*
X1896693Y1704328D1*
X1901446Y1709136D1*
X1906255Y1711513D1*
X1913440D1*
X2010973Y1721075D2*
X2006220Y1725883D1*
X1999035Y1728260D1*
X1989473D1*
X1982288Y1725883D1*
X1977480Y1721075D1*
Y1716321D1*
X1979912Y1711513D1*
X1982288Y1709136D1*
X1987042Y1706760D1*
X2001412Y1701951D1*
X2006220Y1699575D1*
X2008597Y1697143D1*
X2010973Y1692390D1*
Y1685205D1*
X2006220Y1680452D1*
X1999035Y1678020D1*
X1989473D1*
X1982288Y1680452D1*
X1977480Y1685205D1*
X2026413Y1711513D2*
X2035974Y1678020D1*
X2045536Y1711513D1*
X2055097Y1678020D1*
X2064659Y1711513D1*
X1724333Y1519471D2*
X1721956Y1524224D1*
X1717148Y1529033D1*
X1712394Y1531409D1*
X1702833D1*
X1698024Y1529033D1*
X1693271Y1524224D1*
X1690839Y1519471D1*
X1688463Y1512286D1*
Y1500293D1*
X1690839Y1493163D1*
X1693271Y1488354D1*
X1698024Y1483601D1*
X1702833Y1481169D1*
X1712394D1*
X1717148Y1483601D1*
X1721956Y1488354D1*
X1724333Y1493163D1*
X1751710Y1514663D2*
X1746957Y1512286D1*
X1742148Y1507478D1*
X1739772Y1500293D1*
Y1495539D1*
X1742148Y1488354D1*
X1746957Y1483601D1*
X1751710Y1481169D1*
X1758895D1*
X1763704Y1483601D1*
X1768457Y1488354D1*
X1770889Y1495539D1*
Y1500293D1*
X1768457Y1507478D1*
X1763704Y1512286D1*
X1758895Y1514663D1*
X1751710D1*
X1786328Y1531409D2*
Y1481169D1*
X1813705Y1514663D2*
X1808952Y1512286D1*
X1804144Y1507478D1*
X1801767Y1500293D1*
Y1495539D1*
X1804144Y1488354D1*
X1808952Y1483601D1*
X1813705Y1481169D1*
X1820890D1*
X1825699Y1483601D1*
X1830452Y1488354D1*
X1832884Y1495539D1*
Y1500293D1*
X1830452Y1507478D1*
X1825699Y1512286D1*
X1820890Y1514663D1*
X1813705D1*
X1848323D2*
Y1481169D1*
Y1500293D2*
X1850755Y1507478D1*
X1855508Y1512286D1*
X1860317Y1514663D1*
X1867502D1*
X1965035Y1524224D2*
X1960282Y1529033D1*
X1953097Y1531409D1*
X1943535D1*
X1936350Y1529033D1*
X1931542Y1524224D1*
Y1519471D1*
X1933974Y1514663D1*
X1936350Y1512286D1*
X1941103Y1509909D1*
X1955474Y1505101D1*
X1960282Y1502724D1*
X1962659Y1500293D1*
X1965035Y1495539D1*
Y1488354D1*
X1960282Y1483601D1*
X1953097Y1481169D1*
X1943535D1*
X1936350Y1483601D1*
X1931542Y1488354D1*
X1980474Y1514663D2*
X1990036Y1481169D1*
X1999598Y1514663D1*
X2009159Y1481169D1*
X2018721Y1514663D1*
X1690333Y1308251D2*
X1711888D1*
X1719018Y1310627D1*
X1721450Y1313059D1*
X1723826Y1317812D1*
Y1324997D1*
X1721450Y1329750D1*
X1719018Y1332182D1*
X1711888Y1334559D1*
X1690333D1*
Y1284319D1*
X1767950Y1317812D2*
Y1284319D1*
Y1310627D2*
X1763197Y1315436D1*
X1758389Y1317812D1*
X1751259D1*
X1746450Y1315436D1*
X1741697Y1310627D1*
X1739265Y1303442D1*
Y1298689D1*
X1741697Y1291504D1*
X1746450Y1286751D1*
X1751259Y1284319D1*
X1758389D1*
X1763197Y1286751D1*
X1767950Y1291504D1*
X1783389Y1317812D2*
Y1267572D1*
Y1310627D2*
X1788198Y1315380D1*
X1792951Y1317812D1*
X1800136D1*
X1804945Y1315380D1*
X1809698Y1310627D1*
X1812130Y1303442D1*
Y1298634D1*
X1809698Y1291504D1*
X1804945Y1286695D1*
X1800136Y1284319D1*
X1792951D1*
X1788198Y1286695D1*
X1783389Y1291504D1*
X1827569Y1303442D2*
X1856254D1*
Y1308251D1*
X1853877Y1313059D1*
X1851501Y1315436D1*
X1846692Y1317812D1*
X1839507D1*
X1834754Y1315436D1*
X1829945Y1310627D1*
X1827569Y1303442D1*
Y1298689D1*
X1829945Y1291504D1*
X1834754Y1286751D1*
X1839507Y1284319D1*
X1846692D1*
X1851501Y1286751D1*
X1856254Y1291504D1*
X1871693Y1317812D2*
Y1284319D1*
Y1303442D2*
X1874125Y1310627D1*
X1878878Y1315436D1*
X1883687Y1317812D1*
X1890872D1*
X1988405Y1327374D2*
X1983652Y1332182D1*
X1976467Y1334559D1*
X1966905D1*
X1959720Y1332182D1*
X1954912Y1327374D1*
Y1322621D1*
X1957344Y1317812D1*
X1959720Y1315436D1*
X1964473Y1313059D1*
X1978843Y1308251D1*
X1983652Y1305874D1*
X1986029Y1303442D1*
X1988405Y1298689D1*
Y1291504D1*
X1983652Y1286751D1*
X1976467Y1284319D1*
X1966905D1*
X1959720Y1286751D1*
X1954912Y1291504D1*
X2003844Y1317812D2*
X2013406Y1284319D1*
X2022968Y1317812D1*
X2032529Y1284319D1*
X2042091Y1317812D1*
X1690333Y1111400D2*
X1711888D1*
X1719018Y1113777D1*
X1721450Y1116209D1*
X1723826Y1120962D1*
Y1128147D1*
X1721450Y1132900D1*
X1719018Y1135332D1*
X1711888Y1137709D1*
X1690333D1*
Y1087468D1*
X1739265Y1106592D2*
X1767950D1*
Y1111400D1*
X1765574Y1116209D1*
X1763197Y1118585D1*
X1758389Y1120962D1*
X1751204D1*
X1746450Y1118585D1*
X1741642Y1113777D1*
X1739265Y1106592D1*
Y1101839D1*
X1741642Y1094654D1*
X1746450Y1089900D1*
X1751204Y1087468D1*
X1758389D1*
X1763197Y1089900D1*
X1767950Y1094654D1*
X1783389Y1120962D2*
Y1087468D1*
Y1111400D2*
X1790575Y1118585D1*
X1795383Y1120962D1*
X1802513D1*
X1807321Y1118585D1*
X1809698Y1111400D1*
Y1087468D1*
X1907231Y1130523D2*
X1902478Y1135332D1*
X1895293Y1137709D1*
X1885731D1*
X1878546Y1135332D1*
X1873738Y1130523D1*
Y1125770D1*
X1876170Y1120962D1*
X1878546Y1118585D1*
X1883300Y1116209D1*
X1897670Y1111400D1*
X1902478Y1109024D1*
X1904855Y1106592D1*
X1907231Y1101839D1*
Y1094654D1*
X1902478Y1089900D1*
X1895293Y1087468D1*
X1885731D1*
X1878546Y1089900D1*
X1873738Y1094654D1*
X1922671Y1120962D2*
X1932232Y1087468D1*
X1941794Y1120962D1*
X1951355Y1087468D1*
X1960917Y1120962D1*
X1727384Y932660D2*
X1725007Y937413D1*
X1720199Y942222D1*
X1715446Y944598D1*
X1705884D1*
X1701076Y942222D1*
X1696322Y937413D1*
X1693890Y932660D1*
X1691514Y925475D1*
Y913482D1*
X1693890Y906352D1*
X1696322Y901543D1*
X1701076Y896790D1*
X1705884Y894358D1*
X1715446D1*
X1720199Y896790D1*
X1725007Y901543D1*
X1727384Y906352D1*
Y913482D1*
X1715446D1*
X1742823Y927852D2*
Y894358D1*
Y918290D2*
X1750008Y925475D1*
X1754817Y927852D1*
X1761946D1*
X1766755Y925475D1*
X1769131Y918290D1*
Y894358D1*
X1813255Y944598D2*
Y894358D1*
Y920667D2*
X1808502Y925475D1*
X1803694Y927852D1*
X1796509D1*
X1791756Y925475D1*
X1786947Y920667D1*
X1784571Y913482D1*
Y908728D1*
X1786947Y901543D1*
X1791756Y896790D1*
X1796509Y894358D1*
X1803694D1*
X1808502Y896790D1*
X1813255Y901543D1*
X1274548Y2905184D2*
D109*
X1270746Y2912789D1*
X1263052Y2920483D1*
X1255447Y2924285D1*
X1240149D1*
X1232455Y2920483D1*
X1224850Y2912789D1*
X1220959Y2905184D1*
X1217157Y2893688D1*
Y2874498D1*
X1220959Y2863091D1*
X1224850Y2855397D1*
X1232455Y2847792D1*
X1240149Y2843901D1*
X1255447D1*
X1263052Y2847792D1*
X1270746Y2855397D1*
X1274548Y2863091D1*
Y2874498D1*
X1255447D1*
X1299251Y2897491D2*
Y2843901D1*
Y2874498D2*
X1303142Y2885995D1*
X1310747Y2893688D1*
X1318441Y2897491D1*
X1329937D1*
X1354640Y2924285D2*
Y2843901D1*
Y2885995D2*
X1362333Y2893688D1*
X1369938Y2897491D1*
X1381434D1*
X1389039Y2893688D1*
X1396733Y2885995D1*
X1400535Y2874498D1*
Y2866893D1*
X1396733Y2855397D1*
X1389039Y2847792D1*
X1381434Y2843901D1*
X1369938D1*
X1362333Y2847792D1*
X1354640Y2855397D1*
X1425238Y2924285D2*
Y2843901D1*
X1449941Y2830637D2*
X1522632D1*
X1597033Y2924285D2*
X1547334D1*
Y2843901D1*
X1597033D1*
X1547334Y2885995D2*
X1577932D1*
X1675325Y2912789D2*
X1667720Y2920483D1*
X1656224Y2924285D1*
X1640925D1*
X1629429Y2920483D1*
X1621736Y2912789D1*
Y2905184D1*
X1625626Y2897491D1*
X1629429Y2893688D1*
X1637034Y2889885D1*
X1660026Y2882192D1*
X1667720Y2878389D1*
X1671522Y2874498D1*
X1675325Y2866893D1*
Y2855397D1*
X1667720Y2847792D1*
X1656224Y2843901D1*
X1640925D1*
X1629429Y2847792D1*
X1621736Y2855397D1*
X1700028Y2882192D2*
X1734516D1*
X1745923Y2885995D1*
X1749814Y2889885D1*
X1753617Y2897491D1*
Y2908987D1*
X1749814Y2916592D1*
X1745923Y2920483D1*
X1734516Y2924285D1*
X1700028D1*
Y2843901D1*
X1786013Y2924197D2*
X1828018D1*
X1805114Y2893600D1*
X1816611D1*
X1824216Y2889797D1*
X1828018Y2885995D1*
X1831909Y2874498D1*
Y2866893D1*
X1828018Y2855397D1*
X1820413Y2847704D1*
X1808917Y2843901D1*
X1797421D1*
X1786013Y2847704D1*
X1782211Y2851595D1*
X1778320Y2859200D1*
X1860503Y2905096D2*
Y2908898D1*
X1864305Y2916592D1*
X1868108Y2920394D1*
X1875801Y2924197D1*
X1891100D1*
X1898705Y2920394D1*
X1902508Y2916592D1*
X1906399Y2908898D1*
Y2901293D1*
X1902508Y2893600D1*
X1894903Y2882192D1*
X1856612Y2843901D1*
X1910201D1*
X2073948D2*
X2043263Y2924285D1*
X2012666Y2843901D1*
X2024162Y2870696D2*
X2062452D1*
X2110147Y2924285D2*
Y2859200D1*
X2113950Y2847792D1*
X2121643Y2843901D1*
X2129248D1*
X2098651Y2897491D2*
X2125446D1*
X2199847D2*
Y2843901D1*
Y2885995D2*
X2192242Y2893688D1*
X2184548Y2897491D1*
X2173141D1*
X2165447Y2893688D1*
X2157842Y2885995D1*
X2153951Y2874498D1*
Y2866893D1*
X2157842Y2855397D1*
X2165447Y2847792D1*
X2173141Y2843901D1*
X2184548D1*
X2192242Y2847792D1*
X2199847Y2855397D1*
X2224550Y2897491D2*
Y2843901D1*
Y2874498D2*
X2228441Y2885995D1*
X2236046Y2893688D1*
X2243739Y2897491D1*
X2255236D1*
X2279938Y2924285D2*
X2283741Y2920483D1*
X2287632Y2924285D1*
X2283741Y2928176D1*
X2279938Y2924285D1*
X2283741Y2897491D2*
Y2843901D1*
X2390096Y2908898D2*
X2397790Y2912789D1*
X2409286Y2924197D1*
Y2843901D1*
X2456981Y2924197D2*
X2445485Y2920394D1*
X2437791Y2908898D1*
X2433989Y2889797D1*
Y2878301D1*
X2437791Y2859200D1*
X2445485Y2847704D1*
X2456981Y2843901D1*
X2464586D1*
X2476082Y2847704D1*
X2483687Y2859200D1*
X2487578Y2878301D1*
Y2889797D1*
X2483687Y2908898D1*
X2476082Y2920394D1*
X2464586Y2924197D1*
X2456981D1*
X2483687Y2908898D2*
X2437791Y2859200D1*
X2516172Y2905096D2*
Y2908898D1*
X2519974Y2916592D1*
X2523777Y2920394D1*
X2531470Y2924197D1*
X2546769D1*
X2554374Y2920394D1*
X2558177Y2916592D1*
X2562067Y2908898D1*
Y2901293D1*
X2558177Y2893600D1*
X2550571Y2882192D1*
X2512281Y2843901D1*
X2565870D1*
X2613565Y2924197D2*
X2602069Y2920394D1*
X2594375Y2908898D1*
X2590573Y2889797D1*
Y2878301D1*
X2594375Y2859200D1*
X2602069Y2847704D1*
X2613565Y2843901D1*
X2621170D1*
X2632666Y2847704D1*
X2640271Y2859200D1*
X2644162Y2878301D1*
Y2889797D1*
X2640271Y2908898D1*
X2632666Y2920394D1*
X2621170Y2924197D1*
X2613565D1*
X2640271Y2908898D2*
X2594375Y2859200D1*
X2746626Y2882192D2*
X2781115D1*
X2792522Y2885995D1*
X2796413Y2889885D1*
X2800216Y2897491D1*
Y2908987D1*
X2796413Y2916592D1*
X2792522Y2920483D1*
X2781115Y2924285D1*
X2746626D1*
Y2843901D1*
X2824919Y2924285D2*
Y2843901D1*
X2868723Y2897491D2*
X2861117Y2893688D1*
X2853424Y2885995D1*
X2849621Y2874498D1*
Y2866893D1*
X2853424Y2855397D1*
X2861117Y2847792D1*
X2868723Y2843901D1*
X2880219D1*
X2887912Y2847792D1*
X2895517Y2855397D1*
X2899408Y2866893D1*
Y2874498D1*
X2895517Y2885995D1*
X2887912Y2893688D1*
X2880219Y2897491D1*
X2868723D1*
X2935607Y2924285D2*
Y2859200D1*
X2939410Y2847792D1*
X2947103Y2843901D1*
X2954708D1*
X2924111Y2897491D2*
X2950906D1*
X2990907Y2924285D2*
Y2859200D1*
X2994710Y2847792D1*
X3002403Y2843901D1*
X3010008D1*
X2979411Y2897491D2*
X3006206D1*
X3034711Y2874498D2*
X3080607D1*
Y2882192D1*
X3076804Y2889885D1*
X3073002Y2893688D1*
X3065308Y2897491D1*
X3053812D1*
X3046207Y2893688D1*
X3038514Y2885995D1*
X3034711Y2874498D1*
Y2866893D1*
X3038514Y2855397D1*
X3046207Y2847792D1*
X3053812Y2843901D1*
X3065308D1*
X3073002Y2847792D1*
X3080607Y2855397D1*
X3105310Y2897491D2*
Y2843901D1*
Y2874498D2*
X3109201Y2885995D1*
X3116806Y2893688D1*
X3124499Y2897491D1*
X3135995D1*
X3295852Y2905184D2*
X3292049Y2912789D1*
X3284355Y2920483D1*
X3276750Y2924285D1*
X3261452D1*
X3253758Y2920483D1*
X3246153Y2912789D1*
X3242262Y2905184D1*
X3238460Y2893688D1*
Y2874498D1*
X3242262Y2863091D1*
X3246153Y2855397D1*
X3253758Y2847792D1*
X3261452Y2843901D1*
X3276750D1*
X3284355Y2847792D1*
X3292049Y2855397D1*
X3295852Y2863091D1*
X3339655Y2897491D2*
X3332050Y2893688D1*
X3324357Y2885995D1*
X3320554Y2874498D1*
Y2866893D1*
X3324357Y2855397D1*
X3332050Y2847792D1*
X3339655Y2843901D1*
X3351152D1*
X3358845Y2847792D1*
X3366450Y2855397D1*
X3370341Y2866893D1*
Y2874498D1*
X3366450Y2885995D1*
X3358845Y2893688D1*
X3351152Y2897491D1*
X3339655D1*
X3395044D2*
Y2843901D1*
Y2882192D2*
X3406540Y2893688D1*
X3414233Y2897491D1*
X3425641D1*
X3433335Y2893688D1*
X3437137Y2882192D1*
Y2843901D1*
X3473336Y2924285D2*
Y2859200D1*
X3477139Y2847792D1*
X3484832Y2843901D1*
X3492437D1*
X3461840Y2897491D2*
X3488635D1*
X3517140D2*
Y2843901D1*
Y2874498D2*
X3521031Y2885995D1*
X3528636Y2893688D1*
X3536330Y2897491D1*
X3547826D1*
X3591630D2*
X3584024Y2893688D1*
X3576331Y2885995D1*
X3572528Y2874498D1*
Y2866893D1*
X3576331Y2855397D1*
X3584024Y2847792D1*
X3591630Y2843901D1*
X3603126D1*
X3610819Y2847792D1*
X3618424Y2855397D1*
X3622315Y2866893D1*
Y2874498D1*
X3618424Y2885995D1*
X3610819Y2893688D1*
X3603126Y2897491D1*
X3591630D1*
X3647018Y2924285D2*
Y2843901D1*
X3671721Y2924285D2*
Y2843901D1*
X3696424Y2874498D2*
X3742319D1*
Y2882192D1*
X3738517Y2889885D1*
X3734714Y2893688D1*
X3727021Y2897491D1*
X3715525D1*
X3707920Y2893688D1*
X3700226Y2885995D1*
X3696424Y2874498D1*
Y2866893D1*
X3700226Y2855397D1*
X3707920Y2847792D1*
X3715525Y2843901D1*
X3727021D1*
X3734714Y2847792D1*
X3742319Y2855397D1*
X3767022Y2897491D2*
Y2843901D1*
Y2874498D2*
X3770913Y2885995D1*
X3778518Y2893688D1*
X3786212Y2897491D1*
X3797708D1*
X1216385Y2427677D2*
D110*
X1243157Y2357341D1*
X1269930Y2427677D1*
X1291545Y2414213D2*
X1298276Y2417618D1*
X1308336Y2427600D1*
Y2357341D1*
X1333278Y2364073D2*
X1329950Y2360668D1*
X1333278Y2357341D1*
X1336682Y2360668D1*
X1333278Y2364073D1*
X1378415Y2427600D2*
X1368356Y2424272D1*
X1361624Y2414213D1*
X1358297Y2397500D1*
Y2387441D1*
X1361624Y2370727D1*
X1368356Y2360668D1*
X1378415Y2357341D1*
X1385070D1*
X1395129Y2360668D1*
X1401783Y2370727D1*
X1405188Y2387441D1*
Y2397500D1*
X1401783Y2414213D1*
X1395129Y2424272D1*
X1385070Y2427600D1*
X1378415D1*
X1401783Y2414213D2*
X1361624Y2370727D1*
X1228885Y2702677D2*
Y2632341D1*
X1259062D1*
X1269121Y2635746D1*
X1272448Y2639073D1*
X1275775Y2645727D1*
Y2655786D1*
X1272448Y2662518D1*
X1269121Y2665845D1*
X1259062Y2669173D1*
X1269121Y2672577D1*
X1272448Y2675904D1*
X1275775Y2682559D1*
Y2689291D1*
X1272448Y2695945D1*
X1269121Y2699350D1*
X1259062Y2702677D1*
X1228885D1*
Y2669173D2*
X1259062D1*
X1300717Y2639073D2*
X1297390Y2635668D1*
X1300717Y2632341D1*
X1304122Y2635668D1*
X1300717Y2639073D1*
X1393778Y2702677D2*
Y2632341D1*
X1417224D1*
X1427283Y2635746D1*
X1434015Y2642400D1*
X1437342Y2649132D1*
X1440669Y2659114D1*
Y2675904D1*
X1437342Y2685963D1*
X1434015Y2692618D1*
X1427283Y2699350D1*
X1417224Y2702677D1*
X1393778D1*
X1462284Y2679232D2*
Y2632341D1*
Y2659114D2*
X1465689Y2669173D1*
X1472343Y2675904D1*
X1479075Y2679232D1*
X1489134D1*
X1510749Y2702677D2*
X1514076Y2699350D1*
X1517481Y2702677D1*
X1514076Y2706082D1*
X1510749Y2702677D1*
X1514076Y2679232D2*
Y2632341D1*
X1539096Y2679232D2*
Y2632341D1*
Y2665845D2*
X1549155Y2675904D1*
X1555886Y2679232D1*
X1565868D1*
X1572600Y2675904D1*
X1575927Y2665845D1*
Y2632341D1*
X1637701Y2675904D2*
Y2622282D1*
X1634374Y2612300D1*
X1631047Y2608896D1*
X1624315Y2605568D1*
X1614256D1*
X1607601Y2608896D1*
X1637701Y2665845D2*
X1631047Y2672500D1*
X1624315Y2675904D1*
X1614256D1*
X1607601Y2672500D1*
X1600869Y2665845D1*
X1597542Y2655786D1*
Y2649054D1*
X1600869Y2639073D1*
X1607601Y2632341D1*
X1614256Y2629014D1*
X1624315D1*
X1631047Y2632341D1*
X1637701Y2639073D1*
X1777575Y2685963D2*
X1774248Y2692618D1*
X1767516Y2699350D1*
X1760862Y2702677D1*
X1747475D1*
X1740744Y2699350D1*
X1734089Y2692618D1*
X1730685Y2685963D1*
X1727357Y2675904D1*
Y2659114D1*
X1730685Y2649132D1*
X1734089Y2642400D1*
X1740744Y2635746D1*
X1747475Y2632341D1*
X1760862D1*
X1767516Y2635746D1*
X1774248Y2642400D1*
X1777575Y2649132D1*
X1815904Y2679232D2*
X1809249Y2675904D1*
X1802517Y2669173D1*
X1799190Y2659114D1*
Y2652459D1*
X1802517Y2642400D1*
X1809249Y2635746D1*
X1815904Y2632341D1*
X1825963D1*
X1832695Y2635746D1*
X1839349Y2642400D1*
X1842754Y2652459D1*
Y2659114D1*
X1839349Y2669173D1*
X1832695Y2675904D1*
X1825963Y2679232D1*
X1815904D1*
X1864369D2*
Y2608896D1*
Y2669173D2*
X1871100Y2675827D1*
X1877755Y2679232D1*
X1887814D1*
X1894546Y2675827D1*
X1901200Y2669173D1*
X1904605Y2659114D1*
Y2652382D1*
X1901200Y2642400D1*
X1894546Y2635668D1*
X1887814Y2632341D1*
X1877755D1*
X1871100Y2635668D1*
X1864369Y2642400D1*
X1929624Y2679232D2*
X1949665Y2632341D1*
X1943011Y2618955D1*
X1936279Y2612223D1*
X1929624Y2608896D1*
X1926220D1*
X1969783Y2679232D2*
X1949665Y2632341D1*
X1991398Y2679232D2*
Y2632341D1*
Y2659114D2*
X1994803Y2669173D1*
X2001457Y2675904D1*
X2008189Y2679232D1*
X2018248D1*
X2039863Y2702677D2*
X2043190Y2699350D1*
X2046595Y2702677D1*
X2043190Y2706082D1*
X2039863Y2702677D1*
X2043190Y2679232D2*
Y2632341D1*
X2108369Y2675904D2*
Y2622282D1*
X2105041Y2612300D1*
X2101714Y2608896D1*
X2094982Y2605568D1*
X2084923D1*
X2078269Y2608896D1*
X2108369Y2665845D2*
X2101714Y2672500D1*
X2094982Y2675904D1*
X2084923D1*
X2078269Y2672500D1*
X2071537Y2665845D1*
X2068210Y2655786D1*
Y2649054D1*
X2071537Y2639073D1*
X2078269Y2632341D1*
X2084923Y2629014D1*
X2094982D1*
X2101714Y2632341D1*
X2108369Y2639073D1*
X2129984Y2702677D2*
Y2632341D1*
Y2665845D2*
X2140043Y2675904D1*
X2146774Y2679232D1*
X2156833D1*
X2163488Y2675904D1*
X2166815Y2665845D1*
Y2632341D1*
X2198489Y2702677D2*
Y2645727D1*
X2201816Y2635746D1*
X2208548Y2632341D1*
X2215203D1*
X2188430Y2679232D2*
X2211875D1*
X2304859Y2689213D2*
X2311591Y2692618D1*
X2321650Y2702600D1*
Y2632341D1*
X2363383Y2702600D2*
X2353324Y2699272D1*
X2346592Y2689213D1*
X2343265Y2672500D1*
Y2662441D1*
X2346592Y2645727D1*
X2353324Y2635668D1*
X2363383Y2632341D1*
X2370037D1*
X2380096Y2635668D1*
X2386751Y2645727D1*
X2390155Y2662441D1*
Y2672500D1*
X2386751Y2689213D1*
X2380096Y2699272D1*
X2370037Y2702600D1*
X2363383D1*
X2386751Y2689213D2*
X2346592Y2645727D1*
X2411770Y2632341D2*
X2458661Y2702600D1*
X2483681Y2685886D2*
Y2689213D1*
X2487008Y2695945D1*
X2490335Y2699272D1*
X2497067Y2702600D1*
X2510453D1*
X2517108Y2699272D1*
X2520435Y2695945D1*
X2523839Y2689213D1*
Y2682559D1*
X2520435Y2675827D1*
X2513780Y2665845D1*
X2480276Y2632341D1*
X2527167D1*
X2568900Y2702600D2*
X2558841Y2699272D1*
X2552109Y2689213D1*
X2548782Y2672500D1*
Y2662441D1*
X2552109Y2645727D1*
X2558841Y2635668D1*
X2568900Y2632341D1*
X2575554D1*
X2585613Y2635668D1*
X2592268Y2645727D1*
X2595672Y2662441D1*
Y2672500D1*
X2592268Y2689213D1*
X2585613Y2699272D1*
X2575554Y2702600D1*
X2568900D1*
X2592268Y2689213D2*
X2552109Y2645727D1*
X2617287Y2689213D2*
X2624019Y2692618D1*
X2634078Y2702600D1*
Y2632341D1*
X2699257Y2679232D2*
X2695852Y2669173D1*
X2689197Y2662441D1*
X2679138Y2659114D1*
X2675811D1*
X2665752Y2662441D1*
X2659098Y2669173D1*
X2655693Y2679232D1*
Y2682559D1*
X2659098Y2692618D1*
X2665752Y2699272D1*
X2675811Y2702600D1*
X2679138D1*
X2689197Y2699272D1*
X2695852Y2692618D1*
X2699257Y2679232D1*
Y2662441D1*
X2695852Y2645727D1*
X2689197Y2635668D1*
X2679138Y2632341D1*
X2672484D1*
X2662425Y2635668D1*
X2659098Y2642400D1*
X1236503Y2565177D2*
X1229771Y2561850D1*
X1223116Y2555118D1*
X1219712Y2548463D1*
X1216385Y2538404D1*
Y2521614D1*
X1219712Y2511632D1*
X1223116Y2504900D1*
X1229771Y2498246D1*
X1236503Y2494841D1*
X1249889D1*
X1256543Y2498246D1*
X1263275Y2504900D1*
X1266602Y2511632D1*
X1269930Y2521614D1*
Y2538404D1*
X1266602Y2548463D1*
X1263275Y2555118D1*
X1256543Y2561850D1*
X1249889Y2565177D1*
X1236503D1*
X1291545Y2541732D2*
Y2471396D1*
Y2531673D2*
X1298276Y2538327D1*
X1304931Y2541732D1*
X1314990D1*
X1321722Y2538327D1*
X1328376Y2531673D1*
X1331781Y2521614D1*
Y2514882D1*
X1328376Y2504900D1*
X1321722Y2498168D1*
X1314990Y2494841D1*
X1304931D1*
X1298276Y2498168D1*
X1291545Y2504900D1*
X1353396Y2521614D2*
X1393555D1*
Y2528345D1*
X1390227Y2535077D1*
X1386900Y2538404D1*
X1380168Y2541732D1*
X1370109D1*
X1363455Y2538404D1*
X1356723Y2531673D1*
X1353396Y2521614D1*
Y2514959D1*
X1356723Y2504900D1*
X1363455Y2498246D1*
X1370109Y2494841D1*
X1380168D1*
X1386900Y2498246D1*
X1393555Y2504900D1*
X1415170Y2541732D2*
Y2494841D1*
Y2528345D2*
X1425229Y2538404D1*
X1431960Y2541732D1*
X1441942D1*
X1448674Y2538404D1*
X1452001Y2528345D1*
Y2494841D1*
X1588548Y2555118D2*
X1581894Y2561850D1*
X1571835Y2565177D1*
X1558448D1*
X1548389Y2561850D1*
X1541658Y2555118D1*
Y2548463D1*
X1545062Y2541732D1*
X1548389Y2538404D1*
X1555044Y2535077D1*
X1575162Y2528345D1*
X1581894Y2525018D1*
X1585221Y2521614D1*
X1588548Y2514959D1*
Y2504900D1*
X1581894Y2498246D1*
X1571835Y2494841D1*
X1558448D1*
X1548389Y2498246D1*
X1541658Y2504900D1*
X1626877Y2541732D2*
X1620222Y2538404D1*
X1613490Y2531673D1*
X1610163Y2521614D1*
Y2514959D1*
X1613490Y2504900D1*
X1620222Y2498246D1*
X1626877Y2494841D1*
X1636936D1*
X1643668Y2498246D1*
X1650322Y2504900D1*
X1653727Y2514959D1*
Y2521614D1*
X1650322Y2531673D1*
X1643668Y2538404D1*
X1636936Y2541732D1*
X1626877D1*
X1675342D2*
Y2508227D1*
X1678669Y2498246D1*
X1685401Y2494841D1*
X1695460D1*
X1702114Y2498246D1*
X1712173Y2508227D1*
Y2541732D2*
Y2494841D1*
X1733788Y2541732D2*
Y2494841D1*
Y2521614D2*
X1737193Y2531673D1*
X1743847Y2538404D1*
X1750579Y2541732D1*
X1760638D1*
X1822489Y2531673D2*
X1815757Y2538404D1*
X1809026Y2541732D1*
X1799044D1*
X1792312Y2538404D1*
X1785658Y2531673D1*
X1782253Y2521614D1*
Y2514959D1*
X1785658Y2504900D1*
X1792312Y2498246D1*
X1799044Y2494841D1*
X1809026D1*
X1815757Y2498246D1*
X1822489Y2504900D1*
X1844104Y2521614D2*
X1884263D1*
Y2528345D1*
X1880936Y2535077D1*
X1877609Y2538404D1*
X1870877Y2541732D1*
X1860818D1*
X1854163Y2538404D1*
X1847431Y2531673D1*
X1844104Y2521614D1*
Y2514959D1*
X1847431Y2504900D1*
X1854163Y2498246D1*
X1860818Y2494841D1*
X1870877D1*
X1877609Y2498246D1*
X1884263Y2504900D1*
X2024137Y2548463D2*
X2020810Y2555118D1*
X2014078Y2561850D1*
X2007424Y2565177D1*
X1994037D1*
X1987306Y2561850D1*
X1980651Y2555118D1*
X1977247Y2548463D1*
X1973919Y2538404D1*
Y2521614D1*
X1977247Y2511632D1*
X1980651Y2504900D1*
X1987306Y2498246D1*
X1994037Y2494841D1*
X2007424D1*
X2014078Y2498246D1*
X2020810Y2504900D1*
X2024137Y2511632D1*
X2095970Y2548463D2*
X2092643Y2555118D1*
X2085911Y2561850D1*
X2079257Y2565177D1*
X2065870D1*
X2059138Y2561850D1*
X2052484Y2555118D1*
X2049079Y2548463D1*
X2045752Y2538404D1*
Y2521614D1*
X2049079Y2511632D1*
X2052484Y2504900D1*
X2059138Y2498246D1*
X2065870Y2494841D1*
X2079257D1*
X2085911Y2498246D1*
X2092643Y2504900D1*
X2095970Y2511632D1*
X2219131Y2494841D2*
Y2565100D1*
X2185626Y2518286D1*
X2235844D1*
X2260786Y2501573D2*
X2257459Y2498168D1*
X2260786Y2494841D1*
X2264191Y2498168D1*
X2260786Y2501573D1*
X2305924Y2565100D2*
X2295865Y2561772D1*
X2289133Y2551713D1*
X2285806Y2535000D1*
Y2524941D1*
X2289133Y2508227D1*
X2295865Y2498168D1*
X2305924Y2494841D1*
X2312578D1*
X2322638Y2498168D1*
X2329292Y2508227D1*
X2332697Y2524941D1*
Y2535000D1*
X2329292Y2551713D1*
X2322638Y2561772D1*
X2312578Y2565100D1*
X2305924D1*
X2329292Y2551713D2*
X2289133Y2508227D1*
X2469244Y2555118D2*
X2462589Y2561850D1*
X2452530Y2565177D1*
X2439144D1*
X2429085Y2561850D1*
X2422353Y2555118D1*
Y2548463D1*
X2425758Y2541732D1*
X2429085Y2538404D1*
X2435739Y2535077D1*
X2455857Y2528345D1*
X2462589Y2525018D1*
X2465916Y2521614D1*
X2469244Y2514959D1*
Y2504900D1*
X2462589Y2498246D1*
X2452530Y2494841D1*
X2439144D1*
X2429085Y2498246D1*
X2422353Y2504900D1*
X2490859Y2565177D2*
Y2494841D1*
Y2528345D2*
X2500918Y2538404D1*
X2507649Y2541732D1*
X2517708D1*
X2524363Y2538404D1*
X2527690Y2528345D1*
Y2494841D1*
X2589464Y2541732D2*
Y2494841D1*
Y2531673D2*
X2582809Y2538404D1*
X2576078Y2541732D1*
X2566096D1*
X2559364Y2538404D1*
X2552710Y2531673D1*
X2549305Y2521614D1*
Y2514959D1*
X2552710Y2504900D1*
X2559364Y2498246D1*
X2566096Y2494841D1*
X2576078D1*
X2582809Y2498246D1*
X2589464Y2504900D1*
X2611079Y2541732D2*
Y2494841D1*
Y2521614D2*
X2614483Y2531673D1*
X2621138Y2538404D1*
X2627870Y2541732D1*
X2637929D1*
X2659544Y2521614D2*
X2699703D1*
Y2528345D1*
X2696375Y2535077D1*
X2693048Y2538404D1*
X2686316Y2541732D1*
X2676257D1*
X2669603Y2538404D1*
X2662871Y2531673D1*
X2659544Y2521614D1*
Y2514959D1*
X2662871Y2504900D1*
X2669603Y2498246D1*
X2676257Y2494841D1*
X2686316D1*
X2693048Y2498246D1*
X2699703Y2504900D1*
X2721318Y2529970D2*
X2760006D1*
X2835244Y2494841D2*
X2808394Y2565177D1*
X2781621Y2494841D1*
X2791680Y2518286D2*
X2825185D1*
X2866918Y2565177D2*
Y2508227D1*
X2870245Y2498246D1*
X2876977Y2494841D1*
X2883631D1*
X2856859Y2541732D2*
X2880304D1*
X2915305Y2565177D2*
Y2508227D1*
X2918632Y2498246D1*
X2925364Y2494841D1*
X2932019D1*
X2905246Y2541732D2*
X2928691D1*
X2953634D2*
Y2494841D1*
Y2521614D2*
X2957038Y2531673D1*
X2963693Y2538404D1*
X2970425Y2541732D1*
X2980484D1*
X3002099Y2565177D2*
X3005426Y2561850D1*
X3008830Y2565177D1*
X3005426Y2568582D1*
X3002099Y2565177D1*
X3005426Y2541732D2*
Y2494841D1*
X3030445Y2565177D2*
Y2494841D1*
Y2531673D2*
X3037177Y2538404D1*
X3043832Y2541732D1*
X3053891D1*
X3060545Y2538404D1*
X3067277Y2531673D1*
X3070604Y2521614D1*
Y2514959D1*
X3067277Y2504900D1*
X3060545Y2498246D1*
X3053891Y2494841D1*
X3043832D1*
X3037177Y2498246D1*
X3030445Y2504900D1*
X1258817Y3131015D2*
D111*
X1244447D1*
X1234941Y3126262D1*
X1230077Y3121508D1*
X1225324Y3111892D1*
Y3092768D1*
X1230077Y3088015D1*
X1239694D1*
X1258817Y3092768D1*
X1263570Y3083262D1*
X1268323D1*
X1277940Y3092768D1*
X1282693Y3116645D1*
X1277940Y3131015D1*
X1273187Y3140632D1*
X1263570Y3150138D1*
X1254064Y3154891D1*
X1234941D1*
X1225324Y3150138D1*
X1215817Y3140632D1*
X1210954Y3131015D1*
X1206200Y3116645D1*
Y3092768D1*
X1210954Y3078398D1*
X1215817Y3068892D1*
X1225324Y3059275D1*
X1234941Y3054522D1*
X1254064D1*
X1263570Y3059275D1*
X1273187Y3068892D1*
X1258817Y3135768D2*
Y3092768D1*
X1313572Y3155002D2*
Y3054522D1*
Y3107138D2*
X1323189Y3116755D1*
X1332695Y3121508D1*
X1347065D1*
X1356572Y3116755D1*
X1366189Y3107138D1*
X1370942Y3092768D1*
Y3083262D1*
X1366189Y3068892D1*
X1356572Y3059385D1*
X1347065Y3054522D1*
X1332695D1*
X1323189Y3059385D1*
X1313572Y3068892D1*
X1401820Y3121508D2*
Y3073645D1*
X1406573Y3059385D1*
X1416190Y3054522D1*
X1430560D1*
X1440067Y3059385D1*
X1454437Y3073645D1*
Y3121508D2*
Y3054522D1*
X1485315Y3155002D2*
X1490069Y3150249D1*
X1494932Y3155002D1*
X1490069Y3159865D1*
X1485315Y3155002D1*
X1490069Y3121508D2*
Y3054522D1*
X1525811Y3155002D2*
Y3054522D1*
X1614059Y3155002D2*
Y3054522D1*
Y3107138D2*
X1604553Y3116755D1*
X1594936Y3121508D1*
X1580566D1*
X1571059Y3116755D1*
X1561442Y3107138D1*
X1556689Y3092768D1*
Y3083262D1*
X1561442Y3068892D1*
X1571059Y3059385D1*
X1580566Y3054522D1*
X1594936D1*
X1604553Y3059385D1*
X1614059Y3068892D1*
X1644938Y3155002D2*
Y3054522D1*
X1699692Y3121508D2*
X1690186Y3116755D1*
X1680569Y3107138D1*
X1675816Y3092768D1*
Y3083262D1*
X1680569Y3068892D1*
X1690186Y3059385D1*
X1699692Y3054522D1*
X1714063D1*
X1723679Y3059385D1*
X1733186Y3068892D1*
X1738049Y3083262D1*
Y3092768D1*
X1733186Y3107138D1*
X1723679Y3116755D1*
X1714063Y3121508D1*
X1699692D1*
X1826298Y3116755D2*
Y3040152D1*
X1821545Y3025892D1*
X1816791Y3021028D1*
X1807175Y3016275D1*
X1792804D1*
X1783298Y3021028D1*
X1826298Y3102385D2*
X1816791Y3111892D1*
X1807175Y3116755D1*
X1792804D1*
X1783298Y3111892D1*
X1773681Y3102385D1*
X1768928Y3088015D1*
Y3078398D1*
X1773681Y3064139D1*
X1783298Y3054522D1*
X1792804Y3049769D1*
X1807175D1*
X1816791Y3054522D1*
X1826298Y3064139D1*
X1551938Y5209460D2*
D110*
X1481602D1*
Y5186015D1*
X1485007Y5175956D1*
X1491661Y5169224D1*
X1498393Y5165897D1*
X1508375Y5162570D1*
X1525166D1*
X1535225Y5165897D1*
X1541879Y5169224D1*
X1548611Y5175956D1*
X1551938Y5186015D1*
Y5209460D1*
X1535225Y5090737D2*
X1541879Y5094064D1*
X1548611Y5100796D1*
X1551938Y5107450D1*
Y5120837D1*
X1548611Y5127568D1*
X1541879Y5134223D1*
X1535225Y5137627D1*
X1525166Y5140955D1*
X1508375D1*
X1498393Y5137627D1*
X1491661Y5134223D1*
X1485007Y5127568D1*
X1481602Y5120837D1*
Y5107450D1*
X1485007Y5100796D1*
X1491661Y5094064D1*
X1498393Y5090737D1*
X1551861Y4960922D2*
Y4994349D1*
X1521761Y4997676D1*
X1525088Y4994349D1*
X1528493Y4984290D1*
Y4974308D1*
X1525088Y4964249D1*
X1518434Y4957517D1*
X1508375Y4954190D1*
X1501720D1*
X1491661Y4957517D1*
X1484929Y4964249D1*
X1481602Y4974308D1*
Y4984290D1*
X1484929Y4994349D1*
X1488334Y4997676D1*
X1494988Y5001080D1*
X1488334Y4929248D2*
X1484929Y4932575D1*
X1481602Y4929248D1*
X1484929Y4925843D1*
X1488334Y4929248D1*
X1551861Y4884110D2*
X1548534Y4894169D1*
X1538474Y4900901D1*
X1521761Y4904228D1*
X1511702D1*
X1494988Y4900901D1*
X1484929Y4894169D1*
X1481602Y4884110D1*
Y4877456D1*
X1484929Y4867396D1*
X1494988Y4860742D1*
X1511702Y4857337D1*
X1521761D1*
X1538474Y4860742D1*
X1548534Y4867396D1*
X1551861Y4877456D1*
Y4884110D1*
X1538474Y4860742D2*
X1494988Y4900901D1*
X1551938Y4835722D2*
X1481602Y4808950D1*
X1551938Y4782177D1*
X1570277Y4669076D2*
X1563622Y4675808D1*
X1553563Y4682462D1*
X1540177Y4689194D1*
X1523386Y4692521D1*
X1510000D1*
X1493286Y4689194D1*
X1479900Y4682462D1*
X1469841Y4675808D1*
X1463186Y4669076D1*
X1546870Y4617361D2*
X1486593D1*
X1516693Y4647461D2*
Y4587184D1*
X1570277Y4565569D2*
X1563622Y4558837D1*
X1553563Y4552183D1*
X1540177Y4545451D1*
X1523386Y4542124D1*
X1510000D1*
X1493286Y4545451D1*
X1479900Y4552183D1*
X1469841Y4558837D1*
X1463186Y4565569D1*
X4900132Y2581712D2*
D108*
Y2603267D1*
X4897756Y2610397D1*
X4895324Y2612829D1*
X4890571Y2615205D1*
X4883386D1*
X4878633Y2612829D1*
X4876201Y2610397D1*
X4873824Y2603267D1*
Y2581712D1*
X4924064D1*
X4890571Y2642583D2*
X4892947Y2637830D1*
X4897756Y2633021D1*
X4904941Y2630645D1*
X4909694D1*
X4916879Y2633021D1*
X4921632Y2637830D1*
X4924064Y2642583D1*
Y2649768D1*
X4921632Y2654576D1*
X4916879Y2659330D1*
X4909694Y2661761D1*
X4904941D1*
X4897756Y2659330D1*
X4892947Y2654576D1*
X4890571Y2649768D1*
Y2642583D1*
X4873824Y2677201D2*
X4924064D1*
X4890571Y2704578D2*
X4892947Y2699825D1*
X4897756Y2695016D1*
X4904941Y2692640D1*
X4909694D1*
X4916879Y2695016D1*
X4921632Y2699825D1*
X4924064Y2704578D1*
Y2711763D1*
X4921632Y2716572D1*
X4916879Y2721325D1*
X4909694Y2723757D1*
X4904941D1*
X4897756Y2721325D1*
X4892947Y2716572D1*
X4890571Y2711763D1*
Y2704578D1*
X4873824Y2739196D2*
X4924064D1*
X4890571Y2754635D2*
X4914502D1*
X4921632Y2757012D1*
X4924064Y2761820D1*
Y2769005D1*
X4921632Y2773758D1*
X4914502Y2780943D1*
X4890571D2*
X4924064D1*
X4948824Y2531712D2*
X4999064D1*
Y2548459D1*
X4996632Y2555644D1*
X4991879Y2560452D1*
X4987071Y2562829D1*
X4979941Y2565205D1*
X4967947D1*
X4960762Y2562829D1*
X4956009Y2560452D1*
X4951201Y2555644D1*
X4948824Y2548459D1*
Y2531712D1*
X4972756Y2580645D2*
Y2602145D1*
X4970324Y2609330D1*
X4967947Y2611761D1*
X4963194Y2614138D1*
X4958386D1*
X4953633Y2611761D1*
X4951201Y2609330D1*
X4948824Y2602145D1*
Y2580645D1*
X4999064D1*
X4972756Y2597391D2*
X4999064Y2614138D1*
X4948824Y2629577D2*
X4999064Y2648700D1*
X4948824Y2667824D1*
X4948879Y2695201D2*
X4951256Y2688071D1*
X4956009Y2685640D1*
X4960818D1*
X4965571Y2688071D1*
X4968003Y2692825D1*
X4970379Y2702386D1*
X4972756Y2709571D1*
X4977564Y2714324D1*
X4982317Y2716701D1*
X4989502D1*
X4994256Y2714324D1*
X4996687Y2711948D1*
X4999064Y2704763D1*
Y2695201D1*
X4996687Y2688071D1*
X4994256Y2685640D1*
X4989502Y2683263D1*
X4982317D1*
X4977564Y2685640D1*
X4972756Y2690448D1*
X4970379Y2697578D1*
X4968003Y2707139D1*
X4965571Y2711948D1*
X4960818Y2714324D1*
X4956009D1*
X4951256Y2711948D1*
X4948879Y2704763D1*
Y2695201D1*
Y2744079D2*
X4951256Y2736949D1*
X4956009Y2734517D1*
X4960818D1*
X4965571Y2736949D1*
X4968003Y2741702D1*
X4970379Y2751264D1*
X4972756Y2758449D1*
X4977564Y2763202D1*
X4982317Y2765578D1*
X4989502D1*
X4994256Y2763202D1*
X4996687Y2760825D1*
X4999064Y2753640D1*
Y2744079D1*
X4996687Y2736949D1*
X4994256Y2734517D1*
X4989502Y2732140D1*
X4982317D1*
X4977564Y2734517D1*
X4972756Y2739325D1*
X4970379Y2746455D1*
X4968003Y2756017D1*
X4965571Y2760825D1*
X4960818Y2763202D1*
X4956009D1*
X4951256Y2760825D1*
X4948879Y2753640D1*
Y2744079D1*
Y2785826D2*
Y2812079D1*
X4968003Y2797764D1*
Y2804949D1*
X4970379Y2809702D1*
X4972756Y2812079D1*
X4979941Y2814511D1*
X4984694D1*
X4991879Y2812079D1*
X4996687Y2807326D1*
X4999064Y2800141D1*
Y2792956D1*
X4996687Y2785826D1*
X4994256Y2783449D1*
X4989502Y2781018D1*
X4948879Y2841888D2*
X4951256Y2834759D1*
X4956009Y2832327D1*
X4960818D1*
X4965571Y2834759D1*
X4968003Y2839512D1*
X4970379Y2849073D1*
X4972756Y2856258D1*
X4977564Y2861012D1*
X4982317Y2863388D1*
X4989502D1*
X4994256Y2861012D1*
X4996687Y2858635D1*
X4999064Y2851450D1*
Y2841888D1*
X4996687Y2834759D1*
X4994256Y2832327D1*
X4989502Y2829950D1*
X4982317D1*
X4977564Y2832327D1*
X4972756Y2837135D1*
X4970379Y2844265D1*
X4968003Y2853827D1*
X4965571Y2858635D1*
X4960818Y2861012D1*
X4956009D1*
X4951256Y2858635D1*
X4948879Y2851450D1*
Y2841888D1*
X3081896Y5217480D2*
D110*
Y5267698D1*
X3078569Y5277757D1*
X3071837Y5284412D1*
X3061778Y5287817D1*
X3055124D1*
X3045065Y5284412D1*
X3038333Y5277757D1*
X3035006Y5267698D1*
X3035005Y5217481D1*
X2966500Y5227540D2*
X2973154Y5220808D1*
X2983213Y5217481D1*
X2996600D1*
X3006659Y5220808D1*
X3013391Y5227540D1*
Y5234194D1*
X3009986Y5240926D1*
X3006659Y5244253D1*
X3000004Y5247580D1*
X2979886Y5254312D1*
X2973154Y5257639D1*
X2969827Y5261044D1*
X2966500Y5267698D1*
Y5277757D1*
X2973154Y5284412D1*
X2983213Y5287817D1*
X2996600D1*
X3006659Y5284412D1*
X3013391Y5277757D1*
X2944885Y5217481D2*
Y5287817D1*
X2914708D1*
X2904649Y5284412D1*
X2901322Y5281085D1*
X2897994Y5274430D1*
Y5264371D1*
X2901322Y5257639D1*
X2904649Y5254312D1*
X2914708Y5250985D1*
X2904649Y5247580D1*
X2901322Y5244253D1*
X2897994Y5237599D1*
Y5230867D1*
X2901322Y5224212D1*
X2904649Y5220808D1*
X2914708Y5217481D1*
X2944885D1*
Y5250985D2*
X2914708D1*
M02*
